<?xml version="1.0" encoding="utf-8"?>
<!-- Generator: Adobe Illustrator 24.2.0, SVG Export Plug-In . SVG Version: 6.00 Build 0)  -->
<svg version="1.1"
	 id="Layer_1" xmlns:cc="http://creativecommons.org/ns#" xmlns:dc="http://purl.org/dc/elements/1.1/" xmlns:rdf="http://www.w3.org/1999/02/22-rdf-syntax-ns#"
	 xmlns="http://www.w3.org/2000/svg" xmlns:xlink="http://www.w3.org/1999/xlink" x="0px" y="0px" viewBox="0 0 480 480"
	 style="enable-background:new 0 0 480 480;" xml:space="preserve">
<style type="text/css">
	.st0{fill:#8F0000;}
	.st1{fill:#FFFFFF;}
</style>
<g transform="translate(0 -572.36)">
	<path class="st0" d="M60,572.4h360c33.1,0,60,26.9,60,60v360c0,33.1-26.9,60-60,60H60c-33.1,0-60-26.9-60-60v-360
		C0,599.2,26.9,572.4,60,572.4z"/>
	<g transform="matrix(8.545 0 0 8.545 -786.19 -1949.8)">
		<path class="st1" d="M103.3,321.1c0-2.6-2-4.6-4.6-4.6H92v3.1h6.7c0.9,0,1.6,0.6,1.6,1.5v4.5c0,0.9-0.7,1.6-1.6,1.6H92v3h6.7
			c2.6,0,4.6-2.1,4.6-4.6l0-2.1c10.6,0.2,13.6,2.9,17,5.8c3.2,2.8,6.9,5.9,16.3,6l0,1c0,2.6,2.1,4.7,4.6,4.7h6.9v-3.3h-6.9
			c-0.9,0-1.5-0.6-1.5-1.4v-4.5c0-0.9,0.7-1.5,1.5-1.5h6.9v-3h-6.9c-2.6,0-4.6,2-4.6,4.6l0,1.1c-8.9,0-11.5-2.5-14.7-5.4
			c-2.8-2.4-6-5.1-13.2-6.1c0.1-0.1,0.1-0.1,0.2-0.2c1.4-1.3,2.1-2.8,2.9-4.1c0.7-1.3,1.4-2.4,2.5-3.2c0.9-0.6,2.2-1.1,4.2-1.2
			l0,1.1c0,2.6,2.1,4.7,4.6,4.7h18.5c2.6,0,4.6-2.2,4.6-4.7v-4.5c0-2.6-2.1-4.6-4.6-4.6h-18.5c-2.6,0-4.6,2.1-4.6,4.6l0,1.1
			c-2.4,0.1-4.2,0.7-5.6,1.6c-1.6,1.1-2.5,2.7-3.3,4c-0.8,1.4-1.4,2.6-2.4,3.5C106.4,320.3,105.2,320.9,103.3,321.1L103.3,321.1z
			 M123.1,307.8h18.5c0.9,0,1.5,0.6,1.5,1.5v4.5c0,0.9-0.6,1.5-1.5,1.5h-18.5c-0.9,0-1.6-0.6-1.6-1.5v-4.5
			C121.5,308.5,122.2,307.8,123.1,307.8z"/>
	</g>
</g>
</svg>
