<?xml version="1.0" encoding="utf-8"?>
<!-- Generator: Adobe Illustrator 25.0.1, SVG Export Plug-In . SVG Version: 6.00 Build 0)  -->
<svg version="1.1" id="Layer_1" xmlns="http://www.w3.org/2000/svg" xmlns:xlink="http://www.w3.org/1999/xlink" x="0px" y="0px"
	 viewBox="0 0 260 260" style="enable-background:new 0 0 260 260;" xml:space="preserve">
<style type="text/css">
	.st0{fill:#D70751;}
</style>
<g>
	<path class="st0" d="M149.5,137.1c-4.1,0.1,0.8,2.1,6.2,3c1.5-1.2,2.8-2.3,4-3.5C156.4,137.3,153,137.4,149.5,137.1"/>
	<path class="st0" d="M171.7,131.5c2.5-3.4,4.2-7.1,4.9-10.9c-0.6,2.7-2,5.1-3.4,7.6c-7.7,4.9-0.7-2.9,0-5.8
		C164.8,132.8,172,128.6,171.7,131.5"/>
	<path class="st0" d="M179.8,110.3c0.5-7.4-1.5-5.1-2.1-2.2C178.5,108.4,179.1,113.3,179.8,110.3"/>
	<path class="st0" d="M133.9,8.7c2.2,0.4,4.8,0.7,4.4,1.2C140.7,9.4,141.2,8.9,133.9,8.7"/>
	<path class="st0" d="M138.3,10l-1.6,0.3l1.4-0.1L138.3,10"/>
	<path class="st0" d="M206.9,113.1c0.2,6.7-1.9,9.9-3.9,15.6l-3.6,1.8c-2.9,5.7,0.3,3.6-1.8,8.1c-4.6,4-13.8,12.7-16.8,13.5
		c-2.2,0,1.5-2.6,1.9-3.5c-6.1,4.2-4.9,6.3-14.2,8.8l-0.3-0.6c-23,10.8-54.9-10.6-54.5-39.9c-0.2,1.9-0.7,1.4-1.2,2.1
		c-1.2-15.1,7-30.2,20.7-36.3c13.4-6.6,29.2-3.9,38.8,5c-5.3-6.9-15.8-14.3-28.3-13.6c-12.2,0.2-23.6,8-27.4,16.4
		c-6.3,3.9-7,15.2-9.7,17.2c-3.7,26.9,6.9,38.6,24.8,52.3c2.8,1.9,0.8,2.2,1.2,3.6c-5.9-2.8-11.4-7-15.8-12.1
		c2.4,3.5,4.9,6.8,8.2,9.5c-5.6-1.9-13.1-13.6-15.3-14c9.6,17.3,39.1,30.3,54.6,23.8c-7.1,0.3-16.2,0.1-24.3-2.8
		c-3.4-1.7-8-5.3-7.1-6c21.1,7.9,42.9,6,61.1-8.7c4.6-3.6,9.7-9.8,11.2-9.8c-2.2,3.3,0.4,1.6-1.3,4.5c4.6-7.5-2-3,4.8-12.9l2.5,3.5
		c-0.9-6.2,7.7-13.7,6.8-23.5c2-3,2.2,3.2,0.1,10.1c2.9-7.6,0.8-8.9,1.5-15.2c0.8,2.1,1.9,4.4,2.4,6.6c-1.9-7.4,1.9-12.4,2.9-16.7
		c-0.9-0.4-2.9,3.3-3.4-5.5c0.1-3.8,1.1-2,1.4-2.9c-0.7-0.4-2.7-3.3-3.9-8.9c0.9-1.3,2.3,3.4,3.5,3.6c-0.8-4.4-2-7.8-2.1-11.2
		c-3.4-7.1-1.2,1-4-3.1c-3.6-11.4,3-2.6,3.5-7.8c5.5,8,8.7,20.4,10.1,25.5c-1.1-6.3-2.9-12.3-5.1-18.2c1.7,0.7-2.7-12.9,2.2-3.9
		c-5.2-19.2-22.3-37.1-38-45.5c1.9,1.8,4.4,4,3.5,4.3c-7.8-4.7-6.4-5-7.6-7c-6.4-2.6-6.8,0.2-11,0c-12-6.4-14.3-5.7-25.4-9.7
		l0.5,2.3c-8-2.6-9.3,1-17.9,0c-0.5-0.4,2.8-1.5,5.5-1.9c-7.7,1-7.3-1.5-14.9,0.3c1.9-1.3,3.8-2.2,5.8-3.3c-6.3,0.4-15,3.6-12.3,0.7
		c-10.2,4.6-28.4,11-38.6,20.5l-0.3-2.1c-4.7,5.6-20.4,16.7-21.6,24l-1.2,0.3c-2.4,4.1-4,8.8-5.9,13c-3.2,5.4-4.7,2.1-4.2,2.9
		c-6.3,12.7-9.4,23.3-12,32.1c1.9,2.9,0,17.2,0.8,28.7C29,184.1,72,239.1,118.9,251.9c6.9,2.5,17.1,2.4,25.8,2.6
		c-10.3-2.9-11.6-1.6-21.6-5c-7.2-3.4-8.8-7.3-13.9-11.7l2,3.6c-10-3.5-5.8-4.4-14-7l2.2-2.8c-3.2-0.2-8.6-5.5-10.1-8.4l-3.6,0.1
		c-4.3-5.3-6.5-9.1-6.4-12l-1.1,2c-1.3-2.2-15.7-19.8-8.2-15.7c-1.4-1.3-3.2-2.1-5.2-5.7l1.5-1.7c-3.6-4.6-6.6-10.6-6.4-12.5
		c1.9,2.6,3.2,3.1,4.6,3.5c-9.1-22.5-9.6-1.2-16.5-22.9l1.5-0.1c-1.1-1.7-1.8-3.5-2.7-5.3l0.6-6.3c-6.5-7.6-1.8-32.2-0.9-45.6
		c0.7-5.5,5.5-11.3,9.1-20.5L53.4,80c4.3-7.4,24.3-29.8,33.6-28.7c4.5-5.6-0.9,0-1.8-1.4c9.9-10.2,13-7.2,19.7-9.1
		c7.2-4.3-6.2,1.7-2.8-1.6c12.4-3.2,8.8-7.2,25-8.8c1.7,1-4,1.5-5.4,2.8c10.4-5.1,32.8-3.9,47.3,2.8c16.9,7.9,35.9,31.2,36.6,53.2
		l0.9,0.2c-0.4,8.7,1.3,18.8-1.7,28.1L206.9,113.1"/>
	<path class="st0" d="M104.5,142.7l-0.6,2.9c2.7,3.7,4.9,7.7,8.3,10.6C109.8,151.3,107.9,149.3,104.5,142.7"/>
	<path class="st0" d="M110.9,142.5c-1.4-1.6-2.3-3.5-3.2-5.4c0.9,3.3,2.8,6.2,4.5,9.1L110.9,142.5"/>
	<path class="st0" d="M224.3,117.8l-0.6,1.5c-1.1,7.9-3.5,15.7-7.2,22.9C220.6,134.6,223.2,126.3,224.3,117.8"/>
	<path class="st0" d="M134.7,6.8c2.8-1,6.9-0.6,9.8-1.2c-3.9,0.3-7.7,0.5-11.5,1L134.7,6.8"/>
	<path class="st0" d="M36.8,58.8c0.6,6-4.5,8.3,1.1,4.3C40.9,56.4,36.7,61.3,36.8,58.8"/>
	<path class="st0" d="M30.2,86.4c1.3-4,1.5-6.3,2-8.6C28.6,82.3,30.6,83.3,30.2,86.4"/>
</g>
</svg>
