<?xml version="1.0" encoding="utf-8"?>
<!-- Generator: Adobe Illustrator 24.2.0, SVG Export Plug-In . SVG Version: 6.00 Build 0)  -->
<svg version="1.1" id="Layer_1" xmlns="http://www.w3.org/2000/svg" xmlns:xlink="http://www.w3.org/1999/xlink" x="0px" y="0px"
	 viewBox="0 0 2500 2500" style="enable-background:new 0 0 2500 2500;" xml:space="preserve">
<style type="text/css">
	.st0{fill-rule:evenodd;clip-rule:evenodd;fill:#364548;}
	.st1{fill-rule:evenodd;clip-rule:evenodd;fill:#22A0C8;}
	.st2{fill-rule:evenodd;clip-rule:evenodd;fill:#37B1D9;}
	.st3{fill-rule:evenodd;clip-rule:evenodd;fill:#1B81A5;}
	.st4{fill-rule:evenodd;clip-rule:evenodd;fill:#1D91B4;}
	.st5{fill-rule:evenodd;clip-rule:evenodd;fill:#23A3C2;}
	.st6{fill-rule:evenodd;clip-rule:evenodd;fill:#34BBDE;}
	.st7{fill-rule:evenodd;clip-rule:evenodd;fill:#D3ECEC;}
	.st8{fill-rule:evenodd;clip-rule:evenodd;fill:#BDD9D7;}
</style>
<g>
	<path class="st0" d="M377.6,1902.5v-160c0-21,13.1-37.9,34.9-37.9h6c21.8,0,34.8,16.9,34.8,37.9v336.8
		c0,82.1-40.6,147.5-111.3,189.1c-32.4,19.2-69.4,29.3-107,29.2h-15c-82.2,0-147.4-40.6-189.1-111.3c-19.2-32.4-29.3-69.4-29.2-107
		v-15c0-82.2,40.6-147.5,111.3-189.2c32.4-19.2,69.4-29.3,107-29.2h15C290.6,1845.9,337.8,1867.5,377.6,1902.5L377.6,1902.5z
		 M77.5,2071.8c0,59.3,28.8,103.9,80.7,132.4c21,11.5,43.8,17.7,67.8,17.7c58.2,0,101.4-27.5,131.2-76.8
		c13.9-23,20.3-48.1,20.3-74.8c0-51.4-24.3-91.6-65.8-121.4c-25.1-18.1-53.4-27.1-84.3-27.1c-63.5,0-109.2,32.1-136.6,89
		C81.7,2030,77.5,2050.5,77.5,2071.8L77.5,2071.8z M716.2,1845.9h10.5c87.8,0,154.5,42.6,196.9,119.2c16.9,30.7,26,64.1,26,99.2v15
		c0,82.1-40.5,147.6-111.3,189.1c-32.8,19.2-69,29.2-107,29.2h-15c-82.2,0-147.4-40.6-189.1-111.3c-19.2-32.4-29.3-69.4-29.2-107
		v-15c0-82.2,40.8-147.3,111.2-189.2C641.9,1855.6,678.1,1845.9,716.2,1845.9L716.2,1845.9z M573.6,2071.8
		c0,57.6,28.3,100,76.9,129.8c22.8,14,48,20.3,74.7,20.3c56.9,0,99-28.9,128.2-76.9c14-22.9,20.3-48.1,20.3-74.7
		c0-53.6-25.8-94.5-69.9-124.1c-24.2-16.3-51.1-24.4-80.2-24.4c-63.5,0-109.2,32.1-136.6,89C577.9,2030,573.6,2050.5,573.6,2071.8
		L573.6,2071.8z M1264.5,1927.8c-11.4-5.4-32.9-7.1-45.2-7.6c-63.3-2.4-109.1,33.3-136,89.1c-9.3,19.3-13.5,39.6-13.5,61
		c0,64.9,34.1,110.3,92,138c21.2,10.1,48.5,12,71.6,12c20.3,0,49.1-12.5,67.1-21l3.1-1.5h14l1.5,0.3c17.2,3.6,30.2,14.5,30.2,33v7.5
		c0,46.1-84.3,56.7-116.5,58.9c-113.5,7.9-198.4-54.5-230.8-162.8c-5.6-18.8-8.2-37.5-8.2-57.1v-15c0-82.2,40.8-147.2,111.2-189.1
		c32.8-19.5,69-29.2,107.1-29.2h15c40.4,0,77.6,11.5,110.9,34.2l2.7,1.9l1.7,2.9c3.6,6,6.7,12.9,6.7,20v7.5
		c0,19.3-14.5,29.7-31.9,33.1l-1.4,0.3h-4.5C1300.3,1944.2,1274.6,1932.5,1264.5,1927.8L1264.5,1927.8z M1510.3,1979.1
		c29.4-29.5,59-58.9,88.8-87.9c8.3-8.1,39.8-42.3,52.2-42.3h13.6l1.5,0.3c17.3,3.6,30.2,14.5,30.2,33.1v7.5
		c0,12.7-14.8,27.4-23,36.1c-17.4,18.5-35.7,36.3-53.5,54.4l-91.5,92.9c39.4,39.5,78.8,79,117.9,118.8c10.8,11,21.6,22.1,32.3,33.2
		c3.8,4,9.3,8.9,12.5,14.4c3.4,5.1,5.5,10.9,5.5,17.1v7.8l-0.4,1.8c-4.3,17.3-15.2,31.2-34.4,31.2h-6c-12.5,0-26.7-14.2-35.3-22.3
		c-17.7-16.7-34.8-34.2-52.1-51.3l-58.2-57.1v91.3c0,21-13.2,37.9-34.9,37.9h-6c-21.8,0-34.9-16.9-34.9-37.9v-514.3
		c0-21,13.2-37.8,34.9-37.8h6c21.7,0,34.9,16.8,34.9,37.8V1979.1L1510.3,1979.1z M2454.6,1848.9h7.5c22.7,0,37.9,15.3,37.9,37.9
		c0,31.4-30,39.4-55.9,39.4c-34,0-66.5,20.6-90,43.7c-29.2,28.8-42,65.8-42,106.4v183.4c0,21-13.1,37.9-34.9,37.9h-6
		c-21.8,0-34.9-16.9-34.9-37.9v-194c0-74.5,36.3-135.3,96.7-177.9C2369.1,1862.4,2410.4,1848.9,2454.6,1848.9L2454.6,1848.9z
		 M1916.1,2212.4c27.6,9.6,59,8.3,87.3,3.3c14.5-6.2,51.5-22.3,65.1-19.9l2.1,0.4l2,1c8.3,4,16.2,9.7,20.5,18.2
		c9.9,19.8,5.2,39.7-14.3,51l-6.5,3.7c-71.9,41.5-148.3,35.7-220-3c-34.3-18.5-60.5-46-79.8-79.5l-4.5-7.8
		c-46.1-79.9-39.9-164,12.1-239.9c18-26.3,41.4-46.6,68.9-62.4l10.4-6c67.7-39.1,140.2-36.4,209.7-2.1
		c37.4,18.4,67.7,45.9,88.5,82.1l3.8,6.5c15.2,26.3-4.5,49.1-24.7,64.8c-23.5,18.1-47.3,40-69.8,59.4
		C2016.5,2125.5,1966.3,2169,1916.1,2212.4L1916.1,2212.4z M1851,2166.7c56.2-48.2,112.5-96.5,168.5-144.9
		c19.2-16.5,40.2-33.7,59.2-51.1c-15.3-19.2-40.7-33.1-62.4-41.3c-43.7-16.7-86.8-11.1-126.9,12.1c-52.5,30.3-74.8,78.5-72.8,138.6
		c0.8,23.6,7.1,46.4,19.7,66.5C1840.7,2153.7,1845.7,2160.4,1851,2166.7z M1442.1,648.4h223.6V877h113c52.2,0,105.9-9.3,155.3-26
		c24.3-8.2,51.6-19.7,75.5-34.1c-31.6-41.2-47.7-93.2-52.4-144.5c-6.5-69.8,7.6-160.6,54.8-215.2l23.5-27.2l28,22.5
		c70.5,56.6,129.8,135.8,140.3,226c84.9-25,184.6-19.1,259.4,24.1l30.7,17.7l-16.2,31.5c-63.3,123.5-195.6,161.8-325,155
		c-193.6,482.1-615,710.4-1126,710.4c-264,0-506.2-98.7-644.1-332.9l-2.3-3.8l-20.1-40.9c-46.6-103.1-62.1-216-51.6-328.9l3.2-33.8
		h191.2V648.4h223.6V424.9h447.2V201.3h268.3V648.4"/>
	<path class="st1" d="M2166.5,733c15-116.5-72.2-208-126.3-251.5c-62.3,72-72,260.9,25.8,340.3c-54.6,48.5-169.5,92.4-287.2,92.4
		H345.8c-11.4,122.9,10.1,236,59.4,332.9l16.3,29.8c10.3,17.5,21.6,34.4,33.8,50.7c58.9,3.8,113.2,5.1,162.9,4h0
		c97.7-2.2,177.3-13.7,237.7-34.6c9.1-2.8,18.7,2.2,21.6,11.3c2.7,8.7-1.8,17.9-10.3,21.2c-8,2.8-16.4,5.4-25.1,7.9h0
		c-47.5,13.6-98.5,22.7-164.3,26.8c3.9,0.1-4.1,0.6-4.1,0.6c-2.2,0.1-5.1,0.5-7.3,0.6c-25.9,1.5-53.8,1.8-82.4,1.8
		c-31.2,0-62-0.6-96.4-2.3l-0.9,0.6c119.4,134.2,306.1,214.7,540.1,214.7c495.2,0,915.3-219.5,1101.3-712.4
		c132,13.5,258.8-20.1,316.5-132.7C2352.7,681.9,2234.5,698.8,2166.5,733"/>
	<path class="st2" d="M2166.5,733c15-116.5-72.2-208-126.3-251.5c-62.3,72-72,260.9,25.8,340.3c-54.6,48.5-169.5,92.4-287.2,92.4
		h-1348c-5.8,188.2,64,331,187.5,417.4h0c97.7-2.2,177.3-13.7,237.7-34.6c9.1-2.8,18.7,2.2,21.6,11.3c2.7,8.7-1.8,17.9-10.3,21.2
		c-8,2.8-16.4,5.4-25.1,7.9h0c-47.5,13.6-102.9,23.9-168.7,27.9c0,0-1.6-1.5-1.6-1.5c168.5,86.5,412.9,86.1,693.1-21.5
		c314.2-120.7,606.5-350.6,810.5-613.6C2172.4,730.1,2169.4,731.5,2166.5,733"/>
	<path class="st3" d="M348.5,1063.5c8.9,65.8,28.2,127.5,56.7,183.6l16.3,29.8c10.3,17.5,21.6,34.4,33.8,50.7
		c58.9,3.8,113.2,5.1,162.9,4c97.7-2.2,177.3-13.7,237.7-34.6c9.1-2.8,18.7,2.2,21.6,11.3c2.7,8.7-1.8,17.9-10.3,21.2
		c-8,2.8-16.4,5.4-25.1,7.9h0c-47.5,13.6-102.6,23.3-168.4,27.4c-2.3,0.1-6.2,0.2-8.5,0.3c-25.9,1.4-53.5,2.3-82.1,2.3
		c-31.2,0-63.2-0.6-97.6-2.3c119.4,134.2,307.2,215,541.2,215c424,0,792.8-160.9,1006.9-516.5H348.5"/>
	<path class="st4" d="M443.6,1063.5c25.3,115.6,86.3,206.3,174.7,268.1c97.7-2.2,177.3-13.7,237.7-34.6c9.1-2.8,18.7,2.2,21.6,11.3
		c2.7,8.7-1.8,17.9-10.3,21.2c-8,2.8-16.4,5.4-25.1,7.9h0c-47.5,13.6-103.8,23.3-169.6,27.4c168.5,86.4,412.2,85.2,692.4-22.4
		c169.5-65.1,332.6-162.1,479-278.8H443.6"/>
	<path class="st5" d="M540.3,685.7h193.8v193.8H540.3V685.7z M556.5,701.9h15.3v161.5h-15.3V701.9z M585.2,701.9h15.9v161.5h-15.9
		L585.2,701.9L585.2,701.9z M614.6,701.9h15.9v161.5h-15.9V701.9z M643.9,701.9h15.9v161.5h-15.9V701.9z M673.3,701.9h15.9v161.5
		h-15.9L673.3,701.9L673.3,701.9z M702.7,701.9H718v161.5h-15.3V701.9z M763.9,462.1h193.8v193.8H763.9L763.9,462.1L763.9,462.1z
		 M780.1,478.3h15.3v161.5h-15.3V478.3z M808.8,478.3h15.9v161.5h-15.9L808.8,478.3L808.8,478.3z M838.2,478.3h15.9v161.5h-15.9
		V478.3z M867.5,478.3h15.9v161.5h-15.9V478.3z M896.9,478.3h15.9v161.5h-15.9V478.3z M926.2,478.3h15.3v161.5h-15.3V478.3z"/>
	<path class="st6" d="M763.9,685.7h193.8v193.8H763.9L763.9,685.7L763.9,685.7z M780.1,701.9h15.3v161.5h-15.3V701.9z M808.8,701.9
		h15.9v161.5h-15.9L808.8,701.9L808.8,701.9z M838.2,701.9h15.9v161.5h-15.9V701.9z M867.5,701.9h15.9v161.5h-15.9V701.9z
		 M896.9,701.9h15.9v161.5h-15.9V701.9z M926.2,701.9h15.3v161.5h-15.3V701.9z"/>
	<path class="st5" d="M987.5,685.7h193.8v193.8H987.5V685.7z M1003.6,701.9h15.3v161.5h-15.3V701.9z M1032.4,701.9h15.9v161.5h-15.9
		V701.9z M1061.7,701.9h15.9v161.5h-15.9V701.9z M1091.1,701.9h15.9v161.5h-15.9V701.9z M1120.5,701.9h15.9v161.5h-15.9V701.9z
		 M1149.8,701.9h15.3v161.5h-15.3V701.9z"/>
	<path class="st6" d="M987.5,462.1h193.8v193.8H987.5V462.1z M1003.6,478.3h15.3v161.5h-15.3V478.3z M1032.4,478.3h15.9v161.5h-15.9
		V478.3z M1061.7,478.3h15.9v161.5h-15.9V478.3z M1091.1,478.3h15.9v161.5h-15.9V478.3z M1120.5,478.3h15.9v161.5h-15.9V478.3z
		 M1149.8,478.3h15.3v161.5h-15.3V478.3z M1211.1,685.7h193.8v193.8h-193.8V685.7z M1227.2,701.9h15.3v161.5h-15.3V701.9z
		 M1256,701.9h15.9v161.5H1256V701.9z M1285.3,701.9h15.9v161.5h-15.9V701.9z M1314.7,701.9h15.9v161.5h-15.9V701.9z M1344.1,701.9
		h15.9v161.5h-15.9V701.9z M1373.4,701.9h15.3v161.5h-15.3V701.9z"/>
	<path class="st5" d="M1211.1,462.1h193.8v193.8h-193.8V462.1z M1227.2,478.3h15.3v161.5h-15.3V478.3z M1256,478.3h15.9v161.5H1256
		V478.3z M1285.3,478.3h15.9v161.5h-15.9V478.3z M1314.7,478.3h15.9v161.5h-15.9V478.3z M1344.1,478.3h15.9v161.5h-15.9V478.3z
		 M1373.4,478.3h15.3v161.5h-15.3V478.3z"/>
	<path class="st6" d="M1211.1,238.5h193.8v193.8h-193.8V238.5z M1227.2,254.7h15.3v161.5h-15.3V254.7L1227.2,254.7z M1256,254.7
		h15.9v161.5H1256V254.7L1256,254.7z M1285.3,254.7h15.9v161.5h-15.9V254.7L1285.3,254.7z M1314.7,254.7h15.9v161.5h-15.9V254.7
		L1314.7,254.7z M1344.1,254.7h15.9v161.5h-15.9V254.7L1344.1,254.7z M1373.4,254.7h15.3v161.5h-15.3V254.7L1373.4,254.7z"/>
	<path class="st5" d="M1434.7,685.7h193.8v193.8h-193.8V685.7z M1450.8,701.9h15.3v161.5h-15.3L1450.8,701.9L1450.8,701.9z
		 M1479.5,701.9h15.9v161.5h-15.9L1479.5,701.9L1479.5,701.9z M1508.9,701.9h15.9v161.5h-15.9V701.9z M1538.3,701.9h15.9v161.5
		h-15.9V701.9z M1567.6,701.9h15.9v161.5h-15.9V701.9z M1597,701.9h15.3v161.5H1597V701.9z"/>
	<path class="st7" d="M945.6,1193.6c29.5-0.4,53.8,23.2,54.2,52.8c0.4,29.5-23.2,53.8-52.8,54.2c-0.5,0-1,0-1.4,0
		c-29.5-0.4-53.1-24.7-52.7-54.2C893.2,1217.4,916.6,1194,945.6,1193.6"/>
	<path class="st0" d="M945.6,1208.8c4.9,0,9.6,0.9,13.9,2.6c-7.5,4.3-10,13.9-5.7,21.4c2.8,4.8,7.9,7.8,13.5,7.8
		c5.9,0,11-3.3,13.7-8.1c8.1,19.5-1.2,41.9-20.7,50c-19.5,8.1-41.9-1.2-50-20.7c-8.1-19.5,1.2-41.9,20.7-50
		C935.5,1209.8,940.5,1208.8,945.6,1208.8 M0,1082.9h2486.8c-54.1-13.7-171.3-32.3-152-103.3c-98.5,113.9-335.9,79.9-395.8,23.8
		c-66.7,96.8-455.2,60-482.3-15.4c-83.7,98.2-342.9,98.2-426.5,0c-27.1,75.4-415.6,112.2-482.3,15.4
		c-59.9,56.2-297.3,90.2-395.8-23.7C171.3,1050.6,54.2,1069.1,0,1082.9"/>
	<path class="st8" d="M1087.7,1578.9c-132.4-62.8-205.1-148.2-245.5-241.5c-49.2,14-108.3,23-177,26.9c-25.9,1.4-53.1,2.2-81.6,2.2
		c-32.9,0-67.6-1-104.1-2.9c121.4,121.3,270.8,214.8,547.3,216.5C1047.2,1580,1067.5,1579.6,1087.7,1578.9"/>
	<path class="st7" d="M891.3,1423.4c-18.3-24.9-36.1-56.1-49.1-86c-49.2,14.1-108.3,23-177,26.9
		C712.4,1389.9,779.9,1413.6,891.3,1423.4"/>
</g>
</svg>
