<?xml version="1.0" encoding="utf-8"?>
<!-- Generator: Adobe Illustrator 24.2.0, SVG Export Plug-In . SVG Version: 6.00 Build 0)  -->
<svg version="1.1" id="Layer_1" xmlns="http://www.w3.org/2000/svg" xmlns:xlink="http://www.w3.org/1999/xlink" x="0px" y="0px"
	 viewBox="0 0 500 500" style="enable-background:new 0 0 500 500;" xml:space="preserve">
<style type="text/css">
	.st0{fill:#C7C7C7;}
	.st1{fill:#56C868;}
	.st2{fill:#97E0A3;}
</style>
<path class="st0" d="M0,299.4c0.3-4.5,2.6-8,4.6-11.2c9.2-14.7,17.8-29.7,28-43.7c5.6-7.7,12-14.7,17.9-22.1
	c9.4-11.9,20.5-22,32.1-31.7c7.6-6.4,15-13,23.2-18.6c16.5-11.2,33.6-21.5,51.2-30.9c5.6-3,11.9-4.1,17.6-6.7
	c13.5-6.2,27.4-11.3,41.5-15.8c12.4-3.9,25.2-6.5,38.1-8.8c7.7-1.4,15.2-3.5,22.9-4.6c7.7-1,15.2-2.9,23-3.4
	c10.2-0.7,20.5-0.5,30.7-1.4c16.1-1.3,32.1-0.1,48.1,1c21.6,1.4,42.7,6.3,63.7,11.5c11.4,2.8,22.6,6.2,33.5,10.3
	c7.8,2.9,15.1,7.1,20.8,13.6c1.5,1.7,1.3,3.7,1.5,5.4c1.6,12.9,2,25.7,0.4,38.7c-3.1,24.4-10.8,47.4-20.6,69.7
	c-8.9,20.3-19.7,39.5-33.2,57c-6.7,8.7-15.5,15.7-23.4,23.4c-6.1,5.9-12.8,11.3-19.4,16.6c-10.3,8.2-21.9,14.1-33.5,20
	c-19.6,10-40.5,16.4-61.5,22.4c-10.4,3-21,5-31.6,6.7c-8.8,1.4-17.6,1.7-26.5,2.3c-7.7,0.6-15.4,0.7-23.1,0.4
	c-11.3-0.5-22.6-2-34-2.7c-5.6-0.3-11.1-1.5-17.6-1.7c1.1-0.4,1.3-0.6,1.6-0.6c15,0.5,30-0.7,45.1-0.9c8.5-0.1,17-2.2,25.6-2.6
	c9-0.4,17.6-2.8,26.5-3.9c5.8-0.7,11.5-1.8,17.2-2.9c8.4-1.5,16.8-2.9,25-4.9c9.4-2.3,18.3-6.1,27.3-9.7
	c10.8-4.5,22.2-7.8,32.2-13.9c11.5-6.9,24.1-12.5,33.7-22.3c10.1-10.4,17.7-22.5,24-35.6c7.6-16,13.6-32.6,17.8-49.7
	c2.4-9.8,5.6-19.4,6.8-29.5c1.9-15.8,0.3-30.9-6.3-45.6c-3.4-7.5-9.1-12-16-16.1c-14.3-8.4-30.4-10.9-46-15.2
	c-11.4-3.1-23.3-3.7-34.8-6.1c-13.5-2.8-27-2.1-40.5-3.6c-7.8-0.9-15.6-0.1-23.4-1c-5.5-0.6-11.3,0.6-16.8,1.4
	c-8.3,1.2-16.6,2.9-25,4.2c-18.6,2.7-36.3,8.5-53.5,15.9c-17.2,7.4-34.3,15.1-50.6,24.3c-16.3,9.1-32,19.2-47,30.4
	c-8.5,6.4-16.9,12.9-25.2,19.6c-4.4,3.5-8.6,7.3-12.7,11.1c-11.5,10.7-24,20.4-34.8,31.9c-8.4,9-16.2,18.4-23.4,28.4
	C1,298.9,0.6,299,0,299.4z"/>
<path class="st1" d="M330.1,259.9c0,15.3-2.1,30.2-9.1,44.1c-7.8,15.7-20.2,26.7-36.7,32.3c-25,8.5-50.4,8.7-75.3-0.1
	c-21.8-7.6-35.6-23.3-41.6-45.6c-6.3-23.2-6-46.3,2.4-69c7.3-19.7,21.4-32.9,41.2-39.1c25.6-8.1,51.5-8,76.6,2
	c19.5,7.7,31.7,22.5,38,42.3C328.9,237.6,330.1,248.7,330.1,259.9z M197.4,245.5c-1.9,15.6-1.2,31,3.1,46.1
	c3.3,11.4,9.1,21.1,19.5,27.4c9.6,5.8,20.2,7.1,31.2,6.5c20.9-1.2,35.7-13,41.5-33.2c5.5-19.2,5.7-38.6,1.9-58
	c-4.8-24.5-17.9-37.4-41.4-40c-25.6-2.8-45.9,7.7-52.9,34.9C198.6,234.5,197.1,239.9,197.4,245.5z"/>
<path class="st2" d="M200.2,229.2c14.6-4.7,28.7-10.3,41.2-19.3c2.2-1.6,4.3-2.3,7-2.2c3.7,0.2,7.5,0.2,11.3,0
	c2.4-0.1,3.1,0.6,3.1,3c-0.1,11.1-0.1,22.3-0.1,33.5c0,21.2-0.1,42.4,0.1,63.6c0,2.7-0.7,3.5-3.4,3.4c-6.2-0.2-12.4-0.2-18.5,0
	c-2.8,0.1-3.6-0.6-3.6-3.5c0.1-24.1,0.1-48.2,0.1-72.4c0-4.1,0-4.1-3.7-2.3c-11.6,5.6-23.8,9.5-36.3,12.6
	C197.1,239.9,198.6,234.5,200.2,229.2z"/>
</svg>
