<?xml version="1.0" encoding="utf-8"?>
<!-- Generator: Adobe Illustrator 24.1.3, SVG Export Plug-In . SVG Version: 6.00 Build 0)  -->
<svg version="1.1" id="Layer_1" xmlns="http://www.w3.org/2000/svg" xmlns:xlink="http://www.w3.org/1999/xlink" x="0px" y="0px"
	 viewBox="0 0 200 200" style="enable-background:new 0 0 200 200;" xml:space="preserve">
<style type="text/css">
	.st0{fill:url(#SVGID_1_);}
</style>
<linearGradient id="SVGID_1_" gradientUnits="userSpaceOnUse" x1="12.5637" y1="733.8792" x2="12.5637" y2="603.6072" gradientTransform="matrix(1.4011 0 0 1.4011 82.397 -783.1428)">
	<stop  offset="0" style="stop-color:#FCEE1F"/>
	<stop  offset="1" style="stop-color:#F15B2A"/>
</linearGradient>
<path class="st0" d="M191.7,88.6c-0.4-3.4-0.9-7.3-2-11.5c-1.1-4.3-2.8-8.9-5.1-13.8c-2.5-4.8-5.5-9.9-9.6-14.7
	c-1.6-2-3.4-3.7-5.1-5.7c2.8-11.2-3.4-20.9-3.4-20.9c-10.8-0.7-17.6,3.4-20.1,5.1c-0.4-0.2-0.9-0.4-1.2-0.5
	c-1.8-0.7-3.7-1.4-5.7-2.1c-2-0.5-3.9-1.2-5.9-1.6c-2-0.5-4.1-0.9-6.2-1.2c-0.4,0-0.7-0.2-1.1-0.2C121.7,6.4,108.3,0,108.3,0
	C92.8,9.9,89.8,23.2,89.8,23.2s0,0.4-0.2,0.7c-0.9,0.2-1.6,0.5-2.5,0.7c-1.1,0.4-2.3,0.7-3.4,1.2c-1.1,0.5-2.3,0.9-3.4,1.4
	c-2.3,1.1-4.4,2.1-6.7,3.4c-2.1,1.2-4.3,2.5-6.2,3.9c-0.4-0.2-0.5-0.4-0.5-0.4c-20.8-8-39.2,1.6-39.2,1.6C26.1,58,36,71.9,38,74.4
	c-0.5,1.4-0.9,2.7-1.4,4.1c-1.6,5-2.7,10.1-3.4,15.4c-0.2,0.7-0.2,1.6-0.4,2.3C13.7,105.6,8,125.1,8,125.1
	c16,18.5,34.8,19.5,34.8,19.5l0,0c2.3,4.3,5.1,8.3,8.2,12.1c1.2,1.6,2.7,3,4.1,4.6C49.2,178,55.9,192,55.9,192
	c17.9,0.7,29.6-7.8,32.1-9.8c1.8,0.5,3.5,1.1,5.3,1.6c5.5,1.4,11.2,2.3,16.7,2.5c1.4,0,2.8,0,4.3,0h0.7h0.5h0.9h0.9l0,0
	c8.3,12.1,23.2,13.7,23.2,13.7c10.5-11.2,11.2-22,11.2-24.5l0,0c0,0,0,0,0-0.2s0-0.4,0-0.4l0,0c0-0.2,0-0.4,0-0.5
	c2.1-1.6,4.3-3.2,6.4-5c4.3-3.7,7.8-8.2,11-12.8c0.4-0.4,0.5-0.9,0.9-1.2c11.9,0.7,20.2-7.5,20.2-7.5c-2-12.4-9.1-18.5-10.5-19.5
	l0,0c0,0,0,0-0.2-0.2l-0.2-0.2l0,0l-0.2-0.2c0-0.7,0.2-1.4,0.2-2.3c0.2-1.4,0.2-2.7,0.2-4.1v-1.1V120v-0.2c0-0.4,0-0.2,0-0.4v-0.9
	v-1.1c0-0.4,0-0.7,0-1.1s0-0.7-0.2-1.1l-0.2-1.1l-0.2-1.1c-0.2-1.4-0.5-2.7-0.7-4.1c-1.2-5.3-3.4-10.5-6-14.9
	c-2.8-4.6-6.2-8.5-10.1-12.1c-3.9-3.4-8.2-6.2-12.8-8.2c-4.6-2.1-9.2-3.4-14-3.9c-2.3-0.4-4.8-0.4-7.1-0.4h-0.9h-0.2h-0.4h-0.4h-0.9
	c-0.4,0-0.7,0-0.9,0c-1.2,0.2-2.5,0.4-3.5,0.5c-4.8,0.9-9.2,2.7-13.1,5c-3.9,2.3-7.3,5.3-10.1,8.7s-5,6.9-6.4,10.8
	c-1.4,3.7-2.3,7.8-2.5,11.5c0,0.9,0,2,0,2.8c0,0.2,0,0.5,0,0.7v0.7c0,0.5,0,0.9,0.2,1.4c0.2,2,0.5,3.7,1.1,5.5
	c1.1,3.5,2.7,6.7,4.8,9.6c2.1,2.8,4.4,5,7.1,6.7c2.7,1.8,5.3,3,8.2,3.9c2.8,0.9,5.5,1.2,8,1.1c0.4,0,0.7,0,0.9,0s0.4,0,0.5,0
	s0.4,0,0.5,0c0.4,0,0.5,0,0.9,0h0.2h0.2c0.2,0,0.4,0,0.5,0c0.4,0,0.7-0.2,0.9-0.2c0.4,0,0.5-0.2,0.9-0.2c0.5-0.2,1.2-0.4,1.8-0.5
	c1.1-0.4,2.1-0.9,3.2-1.2c1.1-0.5,2-1.1,2.7-1.6c0.2-0.2,0.5-0.4,0.7-0.5c0.9-0.7,1.1-2,0.4-2.8c-0.7-0.7-1.8-0.9-2.7-0.5
	c-0.2,0.2-0.4,0.2-0.7,0.4c-0.7,0.4-1.6,0.7-2.3,0.9c-0.9,0.2-1.8,0.5-2.7,0.7c-0.5,0-0.9,0.2-1.4,0.2c-0.2,0-0.5,0-0.7,0
	s-0.5,0-0.7,0s-0.5,0-0.7,0c-0.4,0-0.5,0-0.9,0c0,0-0.2,0,0,0h-0.2h-0.2c-0.2,0-0.2,0-0.4,0s-0.5,0-0.7-0.2c-2-0.4-4.1-0.9-6-1.8
	c-2-0.9-3.9-2.1-5.5-3.7c-1.8-1.6-3.2-3.4-4.4-5.5c-1.2-2.1-2-4.4-2.3-6.7c-0.2-1.2-0.4-2.5-0.2-3.7c0-0.4,0-0.7,0-1.1
	c0,0.2,0,0,0,0v-0.2v-0.2c0-0.2,0-0.4,0-0.5c0-0.7,0.2-1.2,0.4-2c0.9-5.3,3.5-10.5,7.6-14.4c1.1-1.1,2.1-2,3.4-2.7
	c1.2-0.9,2.5-1.6,3.7-2.1c1.2-0.5,2.7-1.1,4.1-1.4c1.4-0.4,2.8-0.7,4.3-0.7c0.7,0,1.4-0.2,2.1-0.2c0.2,0,0.4,0,0.5,0h0.5h0.4
	c0.2,0,0,0,0,0h0.2h0.5c1.6,0.2,3.2,0.4,4.6,0.7c3,0.7,6,1.8,8.9,3.4c5.7,3.2,10.5,8,13.3,13.8c1.4,2.8,2.5,6,3,9.4
	c0.2,0.9,0.2,1.6,0.4,2.5v0.5v0.5c0,0.2,0,0.4,0,0.5c0,0.2,0,0.4,0,0.5v0.5v0.5c0,0.4,0,1.1,0,1.4c0,0.9-0.2,1.8-0.2,2.7
	c-0.2,0.9-0.2,1.8-0.4,2.7c-0.2,0.9-0.4,1.8-0.5,2.7c-0.4,1.8-1.1,3.4-1.6,5.1c-1.2,3.4-3,6.6-5.1,9.4c-4.3,5.9-10.1,10.6-16.7,13.7
	c-3.4,1.4-6.7,2.7-10.3,3.2c-1.8,0.4-3.5,0.5-5.3,0.5h-0.4h-0.4h-0.5h-0.9H115c0.2,0,0,0,0,0h-0.2c-0.9,0-2,0-2.8-0.2
	c-3.9-0.4-7.6-1.1-11.4-2.1s-7.3-2.5-10.6-4.3c-6.7-3.5-12.8-8.7-17.6-14.6c-2.3-3-4.4-6.2-6.2-9.6c-1.8-3.4-3-6.9-4.1-10.5
	c-1.1-3.5-1.6-7.3-1.8-11v-0.7v-0.2v-0.2V107v-0.5v-0.2v-0.2v-0.4v-0.9v-0.2l0,0v-0.4c0-0.5,0-0.9,0-1.4c0-1.8,0.2-3.7,0.5-5.7
	c0.2-2,0.5-3.7,0.9-5.7c0.4-2,0.9-3.7,1.4-5.7c1.1-3.7,2.3-7.3,3.9-10.6c3.2-6.7,7.3-12.8,12.1-17.6c1.2-1.2,2.5-2.3,3.9-3.4
	c0.5-0.5,1.8-1.6,3.2-2.5c1.4-0.9,2.8-1.8,4.4-2.5c0.7-0.4,1.4-0.7,2.3-1.1c0.4-0.2,0.7-0.4,1.2-0.5c0.4-0.2,0.7-0.4,1.2-0.5
	c1.6-0.7,3.2-1.2,4.8-1.8c0.4-0.2,0.9-0.2,1.2-0.4s0.9-0.2,1.2-0.4c0.9-0.2,1.6-0.4,2.5-0.7c0.4-0.2,0.9-0.2,1.2-0.4
	c0.4,0,0.9-0.2,1.2-0.2s0.9-0.2,1.2-0.2l0.7-0.2l0.7-0.2c0.4,0,0.9-0.2,1.2-0.2c0.5,0,0.9-0.2,1.4-0.2c0.4,0,1.1-0.2,1.4-0.2
	c0.4,0,0.5,0,0.9-0.2h0.5h0.4h0.4c0.5,0,0.9,0,1.4-0.2h0.7c0,0,0.2,0,0,0h0.2h0.4c0.4,0,0.9,0,1.2,0c1.6,0,3.2,0,4.8,0
	c3.2,0.2,6.4,0.5,9.4,1.1c6,1.1,11.9,3,17,5.7c5.1,2.5,9.9,5.7,13.8,9.1c0.2,0.2,0.5,0.4,0.7,0.7c0.2,0.2,0.5,0.4,0.7,0.7
	c0.5,0.4,0.9,0.9,1.4,1.2c0.5,0.4,0.9,0.9,1.4,1.2c0.4,0.5,0.9,0.9,1.2,1.4c1.8,1.8,3.4,3.7,4.8,5.5c2.8,3.7,5.1,7.5,6.9,11
	c0.2,0.2,0.2,0.4,0.4,0.7c0.2,0.2,0.2,0.4,0.4,0.7c0.2,0.4,0.4,0.9,0.7,1.2c0.2,0.4,0.4,0.9,0.5,1.2c0.2,0.4,0.4,0.9,0.5,1.2
	c0.7,1.6,1.2,3.2,1.8,4.8c0.9,2.5,1.4,4.6,2,6.4c0.2,0.7,0.9,1.2,1.6,1.2c0.9,0,1.4-0.7,1.4-1.6C191.8,93.5,191.8,91.2,191.7,88.6z"
	/>
</svg>
