<?xml version="1.0" encoding="utf-8"?>
<!-- Generator: Adobe Illustrator 24.1.3, SVG Export Plug-In . SVG Version: 6.00 Build 0)  -->
<svg version="1.1" id="Layer_1" xmlns="http://www.w3.org/2000/svg" xmlns:xlink="http://www.w3.org/1999/xlink" x="0px" y="0px"
	 viewBox="0 0 250 250" style="enable-background:new 0 0 250 250;" xml:space="preserve">
<style type="text/css">
	.st0{fill:url(#symbol_1_);}
</style>
<linearGradient id="symbol_1_" gradientUnits="userSpaceOnUse" x1="131.6335" y1="127" x2="1000.7342" y2="127" gradientTransform="matrix(1 0 0 -1 0 252)">
	<stop  offset="0" style="stop-color:#4591ED"/>
	<stop  offset="1" style="stop-color:#00C9FF"/>
</linearGradient>
<path id="symbol_2_" class="st0" d="M248,150.8L224.2,46.9c-1.3-5.6-6.6-11.3-12.2-12.8L102.8,0.6C101.2,0.3,99.6,0,98.1,0
	c-4.7,0-9.7,1.9-12.5,4.7L7.3,77.3C3.3,81,0.8,88.5,2,94.2l25.3,111.1c1.3,5.6,6.6,11.3,12.2,12.8l102,31.3c1.6,0.3,3.1,0.6,4.7,0.6
	c4.7,0,9.7-1.9,12.5-4.7l83.5-77.6C247,164,249.2,156.4,248,150.8z M114,25l74.8,22.8c2.8,0.9,2.8,2.2,0,2.8l-39.4,9.1
	c-3.1,0.6-7.2-0.6-9.1-2.8l-27.5-29.7C110.6,25.3,111.2,24.4,114,25z M160.7,159.3c0.6,3.1-1.3,4.7-4.1,3.8l-80.7-24.7
	c-2.8-0.9-3.4-3.4-1.3-5.3l62-57.6c2.2-2.2,4.7-1.3,5.3,1.6L160.7,159.3z M27.7,86l65.7-61c2.2-2.2,5.6-1.9,7.8,0.3l32.9,35.4
	c2.2,2.2,1.9,5.6-0.3,7.8l-65.7,61c-2.2,2.2-5.6,1.9-7.8-0.3L27.4,93.9C25.5,91.7,25.5,88.2,27.7,86z M43.6,183l-17.5-76
	c-0.6-3.1,0.3-3.4,2.5-1.3l27.5,29.7c2.2,2.2,3.1,6.6,2.2,9.4l-11.9,38.5C45.8,185.9,44.3,185.9,43.6,183z M139.7,227.2l-85.4-26.3
	c-2.8-0.9-4.7-4.1-3.8-6.9l14.1-46.3c0.9-2.8,4.1-4.7,6.9-3.8l85.4,26.3c2.8,0.9,4.7,4.1,3.8,6.9l-14.1,46.3
	C145.6,226.5,142.5,228.1,139.7,227.2z M215.7,164.9l-57.3,53.2c-2.2,2.2-3.4,1.3-2.5-1.6l11.9-38.5c0.9-2.8,4.1-5.9,7.2-6.6
	l39.4-9.1C217.3,161.8,217.9,163,215.7,164.9z M222,153.6l-47.2,10.6c-3.1,0.6-5.9-1.3-6.6-4.1l-20-87.3c-0.6-3.1,1.3-5.9,4.1-6.6
	l47.2-10.6c3.1-0.6,5.9,1.3,6.6,4.1l20,87.3C226.7,149.9,224.8,153,222,153.6z"/>
</svg>
