<svg id="Icons" xmlns="http://www.w3.org/2000/svg" viewBox="0 0 288 288"><defs><style>.cls-1{fill:#324b5c;}.cls-2{fill:#a1bdcc;}.cls-3{fill:none;}.cls-4{opacity:0.2;}.cls-5{fill:#fff;}.cls-6{fill:#f29111;}</style></defs><title>Technology_Database_Detailed</title><path class="cls-1" d="M186,226h30a0,0,0,0,1,0,0v11a3,3,0,0,1-3,3H189a3,3,0,0,1-3-3V226A0,0,0,0,1,186,226Z"/><path class="cls-1" d="M72,226h30a0,0,0,0,1,0,0v11a3,3,0,0,1-3,3H75a3,3,0,0,1-3-3V226A0,0,0,0,1,72,226Z"/><rect class="cls-2" x="51" y="48.024" width="186" height="179.976" rx="9" ry="9"/><path class="cls-1" d="M219,204V72a6,6,0,0,0-6-6H75V210H213A6,6,0,0,0,219,204Z"/><path class="cls-1" d="M219,204V72a6,6,0,0,0-6-6H75V210H213A6,6,0,0,0,219,204Z"/><rect class="cls-3" width="288" height="288"/><path class="cls-1" d="M69,84h6a0,0,0,0,1,0,0v24a0,0,0,0,1,0,0H69a3,3,0,0,1-3-3V87A3,3,0,0,1,69,84Z"/><path class="cls-1" d="M69,168h6a0,0,0,0,1,0,0v24a0,0,0,0,1,0,0H69a3,3,0,0,1-3-3V171A3,3,0,0,1,69,168Z"/><path class="cls-4" d="M217.243,67.757A5.985,5.985,0,0,0,213,66H75V84H69a3,3,0,0,0-3,3v18a3,3,0,0,0,3,3h6v60H69a3,3,0,0,0-3,3v18a3,3,0,0,0,3,3h6v18Z"/><path class="cls-5" d="M145.465,93.048a24,24,0,0,0-9.051,45.49,2.992,2.992,0,0,1,1.678,2.684v7.525a3,3,0,0,0,.892,2.134l5.209,5.147-3.837,3.763a3,3,0,0,0,.167,4.436L145,168l-4.54,3.892a3,3,0,0,0-.169,4.4l4.577,4.577a3,3,0,0,0,4.253-.011l5.051-5.1a6,6,0,0,0,1.736-4.221v-30.31a3,3,0,0,1,1.685-2.689,24,24,0,0,0-12.128-45.486ZM147,120a6,6,0,1,1,6-6A6,6,0,0,1,147,120Z"/><circle class="cls-2" cx="75" cy="96" r="3"/><circle class="cls-2" cx="75" cy="180" r="3"/><circle class="cls-5" cx="196.5" cy="187.5" r="10.5"/><circle class="cls-6" cx="196.5" cy="187.5" r="4.5"/></svg>