<?xml version="1.0" encoding="utf-8"?>
<!-- Generator: Adobe Illustrator 24.2.0, SVG Export Plug-In . SVG Version: 6.00 Build 0)  -->
<svg version="1.1" id="svg2399vb" xmlns:svg="http://www.w3.org/2000/svg"
	 xmlns="http://www.w3.org/2000/svg" xmlns:xlink="http://www.w3.org/1999/xlink" x="0px" y="0px" viewBox="0 0 600 600"
	 style="enable-background:new 0 0 600 600;" xml:space="preserve">
<style type="text/css">
	.st0{fill-rule:evenodd;clip-rule:evenodd;fill:#002B64;}
	.st1{fill:#C49A6C;}
	.st2{fill-rule:evenodd;clip-rule:evenodd;fill:#8B5E3C;}
	.st3{fill-rule:evenodd;clip-rule:evenodd;fill:url(#path4028_1_);}
	.st4{fill:#002B64;}
	.st5{fill:url(#path3893_1_);}
	.st6{fill-rule:evenodd;clip-rule:evenodd;fill:url(#path3908_1_);}
	.st7{fill:url(#path3954_1_);}
	.st8{fill-rule:evenodd;clip-rule:evenodd;fill:url(#path4000_1_);}
	.st9{fill-rule:evenodd;clip-rule:evenodd;fill:url(#path4041_1_);}
	.st10{fill:url(#path4075_1_);}
	.st11{fill-rule:evenodd;clip-rule:evenodd;fill:url(#path4015_1_);}
	.st12{fill:url(#path4088_1_);}
</style>
<g id="layer1" transform="translate(-252.94671,-292.65607)">
	<path id="path9" class="st0" d="M839.8,393.4c-9.3,0.3-6.3,3-26.4,7.9c-20.2,5-44.9,3.5-66.7,12.6c-65,27.3-78.1,120.5-137.2,153.9
		c-44.2,25-88.8,27-128.9,39.5c-26.3,8.3-55.2,25.2-79,45.8c-18.5,16-19,30-38.4,50c-20.7,21.4-82.3,0.4-110.2,33.2
		c9,9.1,12.9,11.6,30.7,9.3c-3.7,7-25.3,12.8-21.1,23c4.5,10.8,56.7,18.1,104.3-10.6c22.1-13.4,39.8-32.6,74.2-37.2
		c44.6-5.9,96,3.8,147.6,11.3c-7.7,22.8-23,38-35.3,56.2c-3.8,4.1,7.7,4.6,20.7,2.1c23.5-5.8,40.5-10.5,58.3-20.9
		c21.8-12.7,25.1-45.3,51.9-52.3c14.9,22.9,55.5,28.4,80.7,10c-22.1-6.3-28.2-53.3-20.7-74c7.1-19.6,14-51,21.2-77
		c7.6-27.9,10.5-63,19.7-77.2c13.9-21.3,29.3-28.7,42.6-40.7c13.3-12,25.6-23.8,25.2-51.3C852.8,398.1,848.2,393.2,839.8,393.4
		L839.8,393.4z"/>
	<path id="path3352" class="st1" d="M272.1,766.7c33.8,4.8,54.4,0,81.6-11.8c23.1-10,45.5-30.7,72.8-39.5c40.1-12.9,84.1,0,127,2.6
		c10.4,0.6,20.8,0.6,31.1-0.5c16-9.8,15.6-46.5,31.2-49.9c-0.5,51.5-21.6,82.4-43.7,112.3c46.6-8.2,74.4-35.1,93.2-71.1
		c5.7-10.9,10.6-22.6,14.9-34.9c6.7,5.1,2.9,20.7,6.2,29.1c32.1-17.9,50.4-58.6,62.6-99.9c14.1-47.7,19.8-96,28.9-110.1
		c8.9-13.8,22.6-22.3,35.2-31.1c14.3-10,27-20.5,29.2-39.6c-15.1-1.4-18.6-4.9-20.8-12.5c-7.5,4.3-14.5,5.2-22.3,5.4
		c-6.8,0.2-14.3-0.1-23.4,0.8c-75.5,7.8-85.1,91-133.5,138.1c-3.5,3.4-7.3,6.6-11.4,9.6c-16.9,12.6-37.7,21.7-56.9,29
		c-30.9,11.8-60.4,12.7-89.4,22.9c-21.3,7.5-43,18.4-60.5,30.3c-4.4,3-8.5,6.1-12.3,9.2c-10.3,8.4-17,17.7-23.5,27.3
		c-6.7,9.9-13.2,20.1-23.1,29.8c-16,15.8-76,4.6-97.1,19.2c-2.4,1.6-4.2,3.6-5.5,5.9c11.5,5.2,19.2,2,32.5,3.5
		C296.9,753.4,267.8,760.9,272.1,766.7L272.1,766.7z"/>
	<path id="path3873" class="st2" d="M729.5,676.1c0.9,14.4,9.3,43,16.7,50c-14.5,3.5-39.4-2.3-45.8-12.5
		C703.7,698.9,720.8,685.4,729.5,676.1z"/>
	
		<radialGradient id="path4028_1_" cx="729.3856" cy="976.6187" r="19.3125" gradientTransform="matrix(0.3602 1.3111 4.8216 -1.3247 -4193.624 747.2301)" gradientUnits="userSpaceOnUse">
		<stop  offset="0" style="stop-color:#FFFFFF"/>
		<stop  offset="1" style="stop-color:#FFFFFF;stop-opacity:0"/>
	</radialGradient>
	<path id="path4028" class="st3" d="M821.6,409.8c-7.5,4.3-14.5,5.2-22.3,5.4c-6.8,0.2-14.3-0.1-23.5,0.8
		c-28.1,2.9-47.1,16.3-62.4,34.3l54.6,73.1c3.2-14,6.2-24.9,9.8-30.4c8.9-13.8,22.7-22.3,35.2-31.1c14.3-10,27-20.5,29.2-39.6
		C827.3,420.9,823.8,417.4,821.6,409.8z"/>
	<path id="path3880" class="st0" d="M750.8,447.3c10.7,9.3,33.1,1.8,29.1-16.6C763.3,429.3,753.6,434.9,750.8,447.3z"/>
	<path id="path3882" class="st4" d="M825.3,425.7c-2.8,6-8.3,13.7-8.3,28.8c0,2.6-2,4.4-2,0.4c0.1-14.8,4.1-21.2,8.2-29.7
		C825.1,421.8,826.3,423.2,825.3,425.7z"/>
	<path id="path3884" class="st4" d="M822.4,423.5c-3.4,5.7-11.4,16.1-12.8,31.2c-0.2,2.6-2.4,4.2-2,0.2c1.5-14.8,7.9-24,12.8-32
		C822.6,419.5,823.7,421.1,822.4,423.5z"/>
	<path id="path3886" class="st4" d="M819.8,420.5c-3.8,5.4-16.2,17.8-18.8,32.8c-0.5,2.6-2.7,4-2,0c2.7-14.6,13.4-26.1,19-33.6
		C820.3,416.6,821.3,418.2,819.8,420.5z"/>
	<path id="path3888" class="st4" d="M817.5,417.2c-4.5,4.8-19.4,20.7-24,35.1c-0.8,2.5-3.2,3.6-2-0.3c4.7-14.1,17.7-29.2,24.3-35.9
		C818.6,413.4,819.2,415.1,817.5,417.2L817.5,417.2z"/>
	
		<linearGradient id="path3893_1_" gradientUnits="userSpaceOnUse" x1="551.59" y1="819.4188" x2="557.0469" y2="846.8511" gradientTransform="matrix(3.3367 0 0 -3.3367 -1222.2494 3500.707)">
		<stop  offset="0" style="stop-color:#8B5E3C"/>
		<stop  offset="1" style="stop-color:#8B5E3C;stop-opacity:0"/>
	</linearGradient>
	<path id="path3893" class="st5" d="M631.2,678.1c-12.7,2.8-15.9,2.5-16.6,8.3c-0.7,5.8-1.6,11.3-2.8,16.6
		c-2.4,10.6-5.8,20.2-9.8,29.1c-8.1,17.8-18.9,33-29.9,47.9c46.6-8.2,74.4-35.1,93.2-71.1c5.7-10.8,10.5-22.4,14.8-34.6
		c-1-2.4-2.8-2.5-10.2-3.5C658.7,671.1,643.9,675.3,631.2,678.1L631.2,678.1z"/>
	
		<linearGradient id="path3908_1_" gradientUnits="userSpaceOnUse" x1="581.025" y1="840.727" x2="583.7386" y2="864.564" gradientTransform="matrix(3.3367 0 0 -3.3367 -1222.2126 3500.707)">
		<stop  offset="0" style="stop-color:#8B5E3C"/>
		<stop  offset="1" style="stop-color:#8B5E3C;stop-opacity:0"/>
	</linearGradient>
	<path id="path3908" class="st6" d="M778.5,492.2c-3.4,0.8-18.2,3.6-30.7,14.9c-12.5,11.5-13.2,49.9-18.6,70.6
		c-5.4,20.8-20.2,66.9-28.3,77.5c-8,10.6-14.9,14-20.9,18.5c0.2,0.2,0.3,0.4,0.4,0.6c6.2,5.4,2.7,20.5,5.9,28.8
		c32.1-17.9,50.4-58.7,62.6-99.9c14.1-47.7,19.8-96,28.9-110.1C778.1,492.7,778.3,492.4,778.5,492.2z"/>
	
		<linearGradient id="path3954_1_" gradientUnits="userSpaceOnUse" x1="512.6297" y1="872.8761" x2="520.1297" y2="859.7042" gradientTransform="matrix(3.3367 0 0 -3.3367 -1222.2126 3500.707)">
		<stop  offset="0" style="stop-color:#FFFFFF"/>
		<stop  offset="1" style="stop-color:#FFFFFF;stop-opacity:0"/>
	</linearGradient>
	<path id="path3954" class="st7" d="M640.4,556c-3,2.8-6.1,5.4-9.4,7.8c-16.2,12.1-35.8,20.8-54.2,27.9c0,0-0.1,0-0.1,0
		c-0.8,0.3-1.7,0.7-2.5,1c-1.9,0.7-3.8,1.4-5.7,2.1c-0.1,0-0.2,0.1-0.3,0.1c-1.8,0.6-3.7,1.2-5.5,1.8c-0.1,0-0.3,0.1-0.4,0.1
		c-3.7,1.1-7.3,2.1-10.9,3c-7.6,1.9-15.1,3.4-22.5,4.9c-14.9,3-29.5,5.7-44,10.8c-21.3,7.5-43,18.4-60.5,30.3
		c-4.4,3-8.5,6.1-12.3,9.2c-10.3,8.4-16.9,17.7-23.5,27.3c-6.7,9.9-13.2,20.1-23.1,29.8c-1.3,1.2-2.8,2.3-4.6,3.2l0.1,0.1
		l234.7-99.5l39.7,23l45.9-63.4L640.4,556L640.4,556z"/>
	
		<linearGradient id="path4000_1_" gradientUnits="userSpaceOnUse" x1="498.8588" y1="826.5366" x2="496.3555" y2="842.093" gradientTransform="matrix(3.3367 0 0 -3.3367 -1222.2126 3500.707)">
		<stop  offset="0" style="stop-color:#543824"/>
		<stop  offset="1" style="stop-color:#8B5E3C;stop-opacity:0"/>
	</linearGradient>
	<path id="path4000" class="st8" d="M543.7,642.5c-32.7,0.4-82.6,2.3-122.5,5.6c-3.2,2.3-6.4,4.6-9.3,7
		c-10.3,8.4-16.9,17.7-23.5,27.3c-6.7,9.9-13.2,20.1-23.1,29.8c-16,15.8-76,4.6-97.1,19.2c-2.4,1.6-4.3,3.6-5.5,5.9
		c11.5,5.2,19.2,2,32.4,3.4c1.7,12.6-27.3,20.1-23,25.9c33.8,4.8,54.5,0,81.6-11.8c23.1-10,45.5-30.8,72.8-39.5
		c40.1-12.9,84.1,0,127,2.6c10.4,0.6,20.7,0.7,31-0.4c13.5-8.3,15.4-35.7,25-46.1c-2.1-8.3-8.5-17.5-23.9-24.7
		c-5.9-2.8-13.1-4.1-21.4-4.3C558.7,642.4,551.8,642.4,543.7,642.5z"/>
	
		<radialGradient id="path4041_1_" cx="549.7164" cy="895.2467" r="34.5313" gradientTransform="matrix(0.9813 -4.4262 -1.2414 -0.2752 1323.3597 3312.8579)" gradientUnits="userSpaceOnUse">
		<stop  offset="0" style="stop-color:#543824"/>
		<stop  offset="1" style="stop-color:#8B5E3C;stop-opacity:0"/>
	</radialGradient>
	<path id="path4041" class="st9" d="M712.1,452c-24.9,30.4-39.9,73.1-69.8,102.2c-3.5,3.4-7.3,6.6-11.4,9.6
		c-16.9,12.6-37.7,21.7-56.8,29c-2.9,1.1-5.9,2.1-8.8,3l145.5,86.6c17.7-20.8,29.5-50,38.2-79.3c14.1-47.7,19.8-96,28.9-110.1
		c4.8-7.5,11.1-13.5,17.9-18.8L712.1,452z"/>
	
		<linearGradient id="path4075_1_" gradientUnits="userSpaceOnUse" x1="445.039" y1="833.9322" x2="498.0702" y2="833.9322" gradientTransform="matrix(3.3367 0 0 -3.3367 -1222.2126 3500.707)">
		<stop  offset="0" style="stop-color:#C49A6C"/>
		<stop  offset="1" style="stop-color:#C49A6C;stop-opacity:0"/>
	</linearGradient>
	<path id="path4075" class="st10" d="M399.3,667.8c-4,4.8-7.4,9.7-10.8,14.7c-6.7,9.9-13.2,20.1-23.1,29.8
		c-16,15.8-76,4.6-97.1,19.2c-2.4,1.6-4.3,3.6-5.5,5.9c11.5,5.2,19.2,2,32.4,3.4c1.7,12.6-27.3,20.1-23,25.9
		c33.8,4.8,54.5,0,81.6-11.8c23.1-10,45.5-30.8,72.8-39.5c4.3-1.4,8.7-2.4,13.1-3.2L399.3,667.8z"/>
	
		<radialGradient id="path4015_1_" cx="506.7782" cy="886.8323" r="18.125" gradientTransform="matrix(1.2331 2.671 6.292 -2.9048 -5955.7173 1950.5239)" gradientUnits="userSpaceOnUse">
		<stop  offset="0" style="stop-color:#FFFFFF"/>
		<stop  offset="1" style="stop-color:#FFFFFF;stop-opacity:0"/>
	</radialGradient>
	<path id="path4015" class="st11" d="M362.8,714.2c-18.9,12.8-74.4,3.4-94.6,17.3c-2.4,1.6-4.3,3.6-5.5,5.9
		c11.5,5.2,19.2,2,32.4,3.4c1.7,12.6-27.3,20.1-23,25.9c33.8,4.8,54.5,0,81.6-11.8c10-4.3,19.8-10.6,29.9-17.1L362.8,714.2z"/>
	
		<radialGradient id="path4088_1_" cx="659.619" cy="923.8346" r="49.2813" gradientTransform="matrix(0.5188 0.9106 1.789 -1.0193 -1408.3484 902.663)" gradientUnits="userSpaceOnUse">
		<stop  offset="0" style="stop-color:#FFFFFF"/>
		<stop  offset="1" style="stop-color:#FFFFFF;stop-opacity:0"/>
	</radialGradient>
	<path id="path4088" class="st12" d="M729.2,434.9c-36.3,29.1-50.8,84.1-86.9,119.3c-3.5,3.4-7.3,6.6-11.4,9.6
		c-16.9,12.6-37.7,21.7-56.8,29c-30.9,11.8-60.4,12.6-89.5,22.8c-9.3,3.3-18.5,7.2-27.5,11.6l46,85.3c16.7,2,33.7,4.5,50.4,5.5
		c6,0.4,12,0.5,17.9,0.3l24.9-17.6c5.7-14,9.1-30.8,19.4-33.1c-0.1,7.2-0.6,13.9-1.5,20.3l138.4-98.1c11.5-43.1,17-84.1,25.2-96.9
		c2.4-3.7,5.2-7.1,8.1-10.1L729.2,434.9L729.2,434.9z"/>
</g>
</svg>
