<?xml version="1.0" encoding="utf-8"?>
<!-- Generator: Adobe Illustrator 25.0.1, SVG Export Plug-In . SVG Version: 6.00 Build 0)  -->
<svg version="1.1" id="Layer_1" xmlns="http://www.w3.org/2000/svg" xmlns:xlink="http://www.w3.org/1999/xlink" x="0px" y="0px"
	 viewBox="0 0 2500 2500" style="enable-background:new 0 0 2500 2500;" xml:space="preserve">
<style type="text/css">
	.st0{fill:#FF6309;}
	.st1{fill:#FFB515;}
	.st2{fill:#C90016;}
</style>
<ellipse class="st0" cx="257.1" cy="1250.2" rx="257.1" ry="240.5"/>
<ellipse class="st1" cx="2055.5" cy="2254.3" rx="257.1" ry="240.5"/>
<path class="st0" d="M1456,649.9c312.3,0,571.4,224.3,614.3,515.1H2500c-19.5-228.5-117.5-441.5-281.2-609.4
	c-104.9,51.7-233.8,52.6-343.4-8.5c-109.6-61.2-173.2-169.8-179.3-283.6c-78.8-17.7-159.3-26.7-240.1-26.6
	c-156.8,0-308.3,33.1-446.1,95.9L1225,693.1C1298.6,664.5,1377,649.8,1456,649.9L1456,649.9z"/>
<path class="st2" d="M2070.3,1335.1c-42.8,290.9-302,515.3-614.4,515.3c-81.6,0-159.6-15.4-231.1-43.2l-215.2,360.4
	c137.8,62.8,289.3,95.9,446.2,95.9c81.9,0,162.4-9.1,240.3-26.7c6-113.9,69.6-222.7,179.3-284c109.6-61.2,238.6-60.2,343.5-8.5
	c163.6-168,261.5-381,280.9-609.4H2070.3L2070.3,1335.1z"/>
<path class="st1" d="M835.4,1250.2c0-191.2,92.9-361.9,237.4-471.9L857.7,418c-50.8,34.3-98.5,73-142.6,115.6
	C590.6,654,501.4,799.4,452.2,958c99,62,164.5,169.6,164.5,292.2c0,122.5-65.5,230.2-164.5,292.2c49.1,158.7,138.4,304,262.9,424.4
	c44.1,42.6,91.7,81.3,142.5,115.6l215.1-360.4C928.3,1612,835.4,1441.4,835.4,1250.2z"/>
<ellipse class="st2" cx="2055.3" cy="245.7" rx="257" ry="240.5"/>
</svg>
