<?xml version="1.0" encoding="utf-8"?>
<!-- Generator: Adobe Illustrator 24.2.0, SVG Export Plug-In . SVG Version: 6.00 Build 0)  -->
<svg version="1.1" id="Layer_1" xmlns:serif="http://www.serif.com/"
	 xmlns="http://www.w3.org/2000/svg" xmlns:xlink="http://www.w3.org/1999/xlink" x="0px" y="0px" viewBox="0 0 612 612"
	 style="enable-background:new 0 0 612 612;" xml:space="preserve">
<style type="text/css">
	.st0{fill:#1C9CF3;}
	.st1{fill:url(#SVGID_1_);}
	.st2{fill:#04BBF3;}
	.st3{fill:url(#SVGID_2_);}
	.st4{fill:#02BEF3;}
	.st5{fill:url(#SVGID_3_);}
	.st6{fill:url(#SVGID_4_);}
	.st7{fill-rule:evenodd;clip-rule:evenodd;fill:url(#SVGID_5_);}
	.st8{fill:url(#SVGID_6_);}
	.st9{fill:url(#SVGID_7_);}
	.st10{fill:url(#SVGID_8_);}
	.st11{fill:url(#SVGID_9_);}
	.st12{fill:url(#SVGID_10_);}
	.st13{fill:url(#SVGID_11_);}
	.st14{fill:url(#SVGID_12_);}
	.st15{fill:url(#SVGID_13_);}
	.st16{fill-rule:evenodd;clip-rule:evenodd;fill:url(#SVGID_14_);}
	.st17{fill-rule:evenodd;clip-rule:evenodd;fill:url(#SVGID_15_);}
	.st18{fill-rule:evenodd;clip-rule:evenodd;fill:url(#SVGID_16_);}
	.st19{fill:#B3C3CE;}
	.st20{fill:url(#SVGID_17_);}
	.st21{fill:#F5F6F2;}
	.st22{fill:url(#SVGID_18_);}
	.st23{fill:url(#SVGID_19_);}
	.st24{fill:url(#SVGID_20_);}
	.st25{fill-rule:evenodd;clip-rule:evenodd;fill:url(#SVGID_21_);}
	.st26{fill-rule:evenodd;clip-rule:evenodd;fill:url(#SVGID_22_);}
	.st27{fill-rule:evenodd;clip-rule:evenodd;fill:url(#SVGID_23_);}
	.st28{fill-rule:evenodd;clip-rule:evenodd;fill:url(#SVGID_24_);}
	.st29{fill-rule:evenodd;clip-rule:evenodd;fill:url(#SVGID_25_);}
	.st30{fill-rule:evenodd;clip-rule:evenodd;fill:url(#SVGID_26_);}
	.st31{fill:url(#SVGID_27_);}
	.st32{fill:url(#SVGID_28_);}
	.st33{fill-rule:evenodd;clip-rule:evenodd;fill:url(#SVGID_29_);}
	.st34{fill-rule:evenodd;clip-rule:evenodd;fill:url(#SVGID_30_);}
	.st35{fill-rule:evenodd;clip-rule:evenodd;fill:url(#SVGID_31_);}
	.st36{fill:url(#SVGID_32_);}
	.st37{fill:url(#SVGID_33_);}
	.st38{fill:url(#SVGID_34_);}
	.st39{fill-rule:evenodd;clip-rule:evenodd;fill:url(#SVGID_35_);}
	.st40{fill-rule:evenodd;clip-rule:evenodd;fill:url(#SVGID_36_);}
	.st41{fill-rule:evenodd;clip-rule:evenodd;fill:url(#SVGID_37_);}
	.st42{fill:url(#SVGID_38_);}
	.st43{fill:url(#SVGID_39_);}
	.st44{fill:#CBD3DD;}
	.st45{fill:url(#SVGID_40_);}
	.st46{fill:url(#SVGID_41_);}
	.st47{fill:#00C6F9;}
	.st48{fill:url(#SVGID_42_);}
	.st49{fill:url(#SVGID_43_);}
	.st50{fill:url(#SVGID_44_);}
	.st51{fill:url(#SVGID_45_);}
</style>
<g>
	<path class="st0" d="M309.4,311c0,0,101.3,3.7,147.9,43.8c46.6,40.2,78.5,116.9,64.8,183.5c-27.4-6.4-144.2-26.5-191.7-84.9
		s-45.6-99.5-40.2-124.2C295.7,304.6,309.4,311,309.4,311"/>
	
		<radialGradient id="SVGID_1_" cx="-1.444830e-02" cy="792.2808" r="1.0183" gradientTransform="matrix(-316.2257 0 0 -316.2257 289.651 250846.5)" gradientUnits="userSpaceOnUse">
		<stop  offset="0" style="stop-color:#3D4EAD"/>
		<stop  offset="1" style="stop-color:#00C0F3"/>
	</radialGradient>
	<path class="st1" d="M291.6,329.5c-2.3,10.4-4.8,26.8,0.2,48.5c5.5,23.6,18.5,49,39.9,74.5c49,58.4,186.9,82.1,188.6,82.4
		c5.2-30.4,1.7-62-10.6-95c-12.1-32.6-31.6-61.7-54.9-81.8c-45.8-39.5-147.3-43.6-148.3-43.7l-1,0l-0.8-0.4c0,0-0.9-0.3-2-0.3
		C297.8,313.7,293.9,319.4,291.6,329.5L291.6,329.5z"/>
	<path class="st2" d="M282.9,311c0,0,12.8,26.5-17.3,66.6c-30.1,40.2-93.1,105-250.1,91.3c5.5-37.4,32.9-75.8,63-103.2
		c30.1-27.4,97.7-55.7,142.4-56.6C265.5,308.3,282.9,311,282.9,311"/>
	
		<linearGradient id="SVGID_2_" gradientUnits="userSpaceOnUse" x1="-1.669709e-02" y1="791.4286" x2="1.0016" y2="791.4286" gradientTransform="matrix(-261.7041 0 0 153.4853 278.8454 -121082.3828)">
		<stop  offset="0" style="stop-color:#3F51B4"/>
		<stop  offset="1" style="stop-color:#00C0F3"/>
	</linearGradient>
	<path class="st3" d="M221.6,312.7c-20.9,0.4-48.9,7.2-76.8,18.5c-27.3,11-51.3,25-65.9,38.3c-32.9,29.9-54.1,65.3-60.4,97.1
		c12.6,1,36.3,1.5,36.3,1.5c56.2,0,103.2-10.3,141.7-32.3c34.2-19.5,54.7-43.8,67.1-60.4c23.9-31.9,20.2-54.2,18.1-61.1
		c-5.3-0.6-18.6-1.7-42.2-1.7C233.8,312.5,227.8,312.6,221.6,312.7L221.6,312.7z"/>
	<path class="st4" d="M602.4,217.9c0,0-18.3,52.9-107.7,78.5c-89.5,25.6-185.3,9.1-185.3,9.1s22.8-60.3,88.5-88.5
		C463.6,188.7,579.6,214.3,602.4,217.9"/>
	
		<radialGradient id="SVGID_3_" cx="-1.444864e-02" cy="792.2808" r="1.0183" gradientTransform="matrix(-316.2194 0 0 -316.2194 289.6519 250841.5469)" gradientUnits="userSpaceOnUse">
		<stop  offset="0" style="stop-color:#3D4EAD"/>
		<stop  offset="1" style="stop-color:#00C0F3"/>
	</radialGradient>
	<path class="st5" d="M396.3,222.9c-53.5,23-78.7,67.6-86.2,83c11,1.5,36.3,4.4,68.1,4.4c42.1,0,80.7-4.9,114.5-14.6
		c72.2-20.6,98.5-61.7,105.8-75.5c-1.2-0.2-83.4-16.4-130.3-16.4C434.5,203.8,416.6,214.1,396.3,222.9L396.3,222.9z"/>
	<path class="st4" d="M281.3,314.1c0,0-130.2-6.1-206.6-61.9C-1.8,196.4,0,178,0,178s85.7-0.3,128,15
		C170.3,208.3,236.7,251.2,281.3,314.1"/>
	
		<radialGradient id="SVGID_4_" cx="1.891988e-02" cy="792.1351" r="1.0183" gradientTransform="matrix(-251.6664 -514.4816 61.4046 -536.6523 -48399.2148 425781.2188)" gradientUnits="userSpaceOnUse">
		<stop  offset="0" style="stop-color:#0072E9"/>
		<stop  offset="1" style="stop-color:#00FDFE"/>
	</radialGradient>
	<path class="st6" d="M79.2,251.2c29.5,21.6,65.2,36.8,107.1,47.1c0,0,0,0,0,0c44.5,5.3,81.5,13.6,90.4,14.3
		c-19.6-26.6-43.9-50.7-70-70.7c-25.3-19.4-52-34.8-74.1-43.5c-4.1-1.6-8.5-3.1-13-4.5C80.5,182.2,15,181.5,5,181.3
		C7.5,185.9,16.2,205.2,79.2,251.2z"/>
	
		<radialGradient id="SVGID_5_" cx="-0.366" cy="793.5999" r="1.0183" gradientTransform="matrix(19.1499 2.5176 7.0231 -54.0817 -5291.3804 43301.8984)" gradientUnits="userSpaceOnUse">
		<stop  offset="0" style="stop-color:#153E68;stop-opacity:0.34"/>
		<stop  offset="1" style="stop-color:#153E68;stop-opacity:1.000000e-02"/>
	</radialGradient>
	<path class="st7" d="M282.2,326.7c11.6,1.5,17.8,27.4,13.9,57.8c-3.9,30.4-16.4,53.9-28,52.4c-11.6-1.5-17.8-27.4-13.9-57.8
		C258.1,348.7,270.6,325.2,282.2,326.7z"/>
	<g>
		
			<radialGradient id="SVGID_6_" cx="-0.9371" cy="792.3262" r="1.0183" gradientTransform="matrix(-49.5185 52.589 -124.4947 -117.2253 98956.1484 93307.2109)" gradientUnits="userSpaceOnUse">
			<stop  offset="0" style="stop-color:#00336F"/>
			<stop  offset="1" style="stop-color:#00336F;stop-opacity:0"/>
		</radialGradient>
		<path class="st8" d="M299.3,310.4c-38.7,7.3,16,180.7,74.7,207.1c112.7,50.6,175.2-46.8,175.2-82.1
			C549.2,400.1,394,292.6,299.3,310.4L299.3,310.4z"/>
		
			<radialGradient id="SVGID_7_" cx="-1.2538" cy="792.2848" r="1.0183" gradientTransform="matrix(-31.1719 54.5335 -117.4629 -68.9604 93378.4453 55054.6172)" gradientUnits="userSpaceOnUse">
			<stop  offset="0" style="stop-color:#00336F;stop-opacity:0.5"/>
			<stop  offset="1" style="stop-color:#00336F;stop-opacity:0"/>
		</radialGradient>
		<path class="st9" d="M244.6,360c-14.1,25.6,99.2,112.8,149.8,103.1c50.6-9.7,118.2-61,112.9-88.9c-5.3-27.9-97.4-105.1-171.1-77.5
			C287.9,314.8,258.7,334.3,244.6,360L244.6,360z"/>
		
			<radialGradient id="SVGID_8_" cx="-1.325" cy="792.2059" r="1.0183" gradientTransform="matrix(-23.7172 58.1644 -125.5226 -52.8873 99758.4141 42327.8203)" gradientUnits="userSpaceOnUse">
			<stop  offset="0" style="stop-color:#00336F;stop-opacity:0.5"/>
			<stop  offset="1" style="stop-color:#00336F;stop-opacity:0"/>
		</radialGradient>
		<path class="st10" d="M292.9,371.3c-10.6,27.3,63.7,104.8,112.6,88.5c48.9-16.3,109.1-76,100.2-103
			c-8.9-26.9-110.3-91.3-179.8-54.3C280.4,326.9,303.5,344,292.9,371.3L292.9,371.3z"/>
		
			<radialGradient id="SVGID_9_" cx="-1.5711" cy="792.2484" r="1.0183" gradientTransform="matrix(-20.2003 49.0661 -106.5119 -44.4521 84685.8984 35637.6328)" gradientUnits="userSpaceOnUse">
			<stop  offset="0" style="stop-color:#00336F"/>
			<stop  offset="1" style="stop-color:#00336F;stop-opacity:0"/>
		</radialGradient>
		<path class="st11" d="M285.2,358.8c-9,23,54,88.3,95.5,74.5c41.6-13.8,92.7-64.2,85.2-86.9c-7.5-22.7-93.6-76.9-152.6-45.6
			C274.7,321.4,294.2,335.9,285.2,358.8z"/>
	</g>
	<g>
		
			<radialGradient id="SVGID_10_" cx="0.9939" cy="792.3681" r="1.0183" gradientTransform="matrix(-46.8037 -48.0281 134.5229 -109.4801 -106337.9922 87145.0859)" gradientUnits="userSpaceOnUse">
			<stop  offset="0" style="stop-color:#002D68"/>
			<stop  offset="1" style="stop-color:#002D68;stop-opacity:0"/>
		</radialGradient>
		<path class="st12" d="M299,356.4c-7.7,23.3-93.4,119.8-152.5,133.3c-59.1,13.5-117.3-48.3-122.7-76.9
			c-5.4-28.5,83.8-109.9,175.2-116.9C258.9,291.2,311.8,317.3,299,356.4"/>
		
			<radialGradient id="SVGID_11_" cx="0.7871" cy="792.3386" r="1.0183" gradientTransform="matrix(-50.7692 -60.7778 126.7519 -119.8645 -100186.0703 95348.4063)" gradientUnits="userSpaceOnUse">
			<stop  offset="0" style="stop-color:#002D68"/>
			<stop  offset="1" style="stop-color:#002D68;stop-opacity:0"/>
		</radialGradient>
		<path class="st13" d="M297.3,343.5c-5.9,27.2-84.6,135.3-142.9,146.8C96,501.8,32.7,423.7,25,389.3S100.7,265,192,263.7
			C251.9,262.8,307.2,297.9,297.3,343.5"/>
		
			<radialGradient id="SVGID_12_" cx="1.5954" cy="792.379" r="1.0183" gradientTransform="matrix(-22.2998 -42.8832 101.3764 -52.305 -80094.8047 41851.2773)" gradientUnits="userSpaceOnUse">
			<stop  offset="0" style="stop-color:#002D68"/>
			<stop  offset="1" style="stop-color:#002D68;stop-opacity:0"/>
		</radialGradient>
		<path class="st14" d="M254.9,360.2c-8.4,15.1-76.9,67.4-116.3,65.8c-39.3-1.5-66.7-56.4-65.9-77.6c0.9-21.3,69.4-62.2,128.1-49.9
			C239.4,306.4,268.9,334.9,254.9,360.2"/>
	</g>
	
		<radialGradient id="SVGID_13_" cx="1.6707" cy="791.6665" r="1.0183" gradientTransform="matrix(21.5638 -43.2581 101.9291 51.2196 -80576.4922 -40201.0703)" gradientUnits="userSpaceOnUse">
		<stop  offset="0" style="stop-color:#002D68"/>
		<stop  offset="1" style="stop-color:#002D68;stop-opacity:0"/>
	</radialGradient>
	<path class="st15" d="M168.4,334.8c-17.1,2.1-99.7-22.6-121.6-55.3c-21.9-32.7,6.3-87.1,24-98.9c17.7-11.8,91.1,19.6,115.8,74.3
		C202.8,290.7,197.2,331.2,168.4,334.8"/>
	<g>
		
			<radialGradient id="SVGID_14_" cx="6.333293e-02" cy="793.1417" r="1.019" gradientTransform="matrix(265.6548 -34.68 -9.9544 -76.2528 8221.4121 60756.5742)" gradientUnits="userSpaceOnUse">
			<stop  offset="0" style="stop-color:#00326D"/>
			<stop  offset="1" style="stop-color:#003B79;stop-opacity:0"/>
		</radialGradient>
		<path class="st16" d="M468.8,192.8C543,183,607,204,611.7,239.8c4.7,35.7-51.6,72.7-125.8,82.5c-74.2,9.8-138.2-11.2-142.9-47
			C338.3,239.6,394.6,202.6,468.8,192.8z"/>
		
			<radialGradient id="SVGID_15_" cx="-1.542730e-02" cy="793.2102" r="1.019" gradientTransform="matrix(239.489 25.1656 7.7406 -73.8407 -5780.0229 58819.1914)" gradientUnits="userSpaceOnUse">
			<stop  offset="0" style="stop-color:#00326D"/>
			<stop  offset="1" style="stop-color:#003B79;stop-opacity:0"/>
		</radialGradient>
		<path class="st17" d="M483.8,197.6c66.9,6.9,118.3,40.6,114.7,75.2c-3.6,34.6-60.8,57.1-127.7,50.2
			c-66.9-6.9-118.3-40.6-114.7-75.2C359.8,213.2,417,190.7,483.8,197.6L483.8,197.6z"/>
		
			<radialGradient id="SVGID_16_" cx="7.944500e-02" cy="793.3658" r="1.019" gradientTransform="matrix(202.0121 -24.5323 -7.7861 -63.9325 6501.8203 50999.3398)" gradientUnits="userSpaceOnUse">
			<stop  offset="0" style="stop-color:#00326D"/>
			<stop  offset="1" style="stop-color:#003B79;stop-opacity:0"/>
		</radialGradient>
		<path class="st18" d="M436.2,208.8c56.4-7,105.2,11.7,108.9,41.7c3.7,30-39.1,59.9-95.5,66.9c-56.4,7-105.2-11.7-108.9-41.7
			C337,245.8,379.8,215.8,436.2,208.8z"/>
	</g>
	<path class="st19" d="M288.2,312.9c0.1,1.8,4.8,38.2-26.7,51.9c-24.4,10.6-54.3,15.8-120.7-14.3c-66.4-30.1-89.5-73.9-89.5-73.9
		s37.1,13.6,60.2,15.4s82.7,10.2,97.9,13.1c15.2,2.8,42.2,0.6,52.3-1.7C271.9,300.9,287.1,294.7,288.2,312.9"/>
	
		<linearGradient id="SVGID_17_" gradientUnits="userSpaceOnUse" x1="-1.917501e-02" y1="792.3799" x2="0.9991" y2="792.3799" gradientTransform="matrix(-232.9454 0 0 -232.9454 284.077 184904.1719)">
		<stop  offset="0" style="stop-color:#F5F7FA"/>
		<stop  offset="0.53" style="stop-color:#F1F4F2"/>
		<stop  offset="1" style="stop-color:#BAD7E9"/>
	</linearGradient>
	<path class="st20" d="M140.8,348.6c66.4,30.1,96.4,24.9,120.7,14.4c31.5-13.7,26.8-50.1,26.7-51.9c-1.1-18.2-16.3-11.9-26.4-9.7
		c-10.1,2.3-36.5,0.7-58.3-0.9c-26-1.8-68-7.3-91.9-10.5c-22.9-3.1-60.2-15.4-60.2-15.4S74.4,318.4,140.8,348.6z"/>
	<path class="st21" d="M268.3,279.7c0,0-21.1-16.7-38.3-34.9c-17.2-18.2-72.8-70.8-86.5-85c-13.8-14.3-51.1-62.9-56-83.6
		c-11.3,25.1-18.7,70.8-4.9,115c13.8,44.2,45.7,76.2,88,93.9c42.3,17.7,79.1,16.7,89.5,16.7C270.3,301.9,284.5,295,268.3,279.7"/>
	
		<linearGradient id="SVGID_18_" gradientUnits="userSpaceOnUse" x1="-2.151076e-02" y1="792.4371" x2="0.9968" y2="792.4371" gradientTransform="matrix(-206.5868 0 0 -206.5868 282.7823 163896.7188)">
		<stop  offset="0" style="stop-color:#FAFAFA"/>
		<stop  offset="0.26" style="stop-color:#F1F6F8"/>
		<stop  offset="0.73" style="stop-color:#DCE5EB"/>
		<stop  offset="1" style="stop-color:#BBCFDA"/>
	</linearGradient>
	<path class="st22" d="M84.3,191.3c13.8,44.2,45.7,76.2,88,93.9c42.3,17.7,79.1,18,89.5,18c5.8,0,24.3-0.7,25.2-3.5
		c2-5.9-9.4-10.3-16.4-16.9c-18.7-14.8-18.4-16.3-38.8-37.9c-17.2-18.2-72.8-70.8-86.5-85c-13.8-14.3-51.1-62.9-56-83.6
		C77.9,101.3,70.6,147,84.3,191.3z"/>
	
		<linearGradient id="SVGID_19_" gradientUnits="userSpaceOnUse" x1="0.387" y1="792.0301" x2="1.4053" y2="792.0301" gradientTransform="matrix(0 -229.4001 229.4001 0 -181267.8125 396.1497)">
		<stop  offset="0" style="stop-color:#FDFDFF"/>
		<stop  offset="0.26" style="stop-color:#F1F2F2"/>
		<stop  offset="0.73" style="stop-color:#BFD2E0"/>
		<stop  offset="1" style="stop-color:#AFC0CC"/>
	</linearGradient>
	<path class="st23" d="M502.4,101.1c-18.3,16.4-50.6,38.3-81.7,58.4s-51.1,53.9-74.9,89.5c-23.7,35.6-47.5,52.9-47.5,52.9
		s37.4,5.5,73,5.5c54.8,0,116.9-45.6,139.7-70.3c22.8-24.7,38.2-64.8,38.3-105.9c0.2-48-22-57.4-22-57.4S520.7,84.7,502.4,101.1
		L502.4,101.1z"/>
	
		<linearGradient id="SVGID_20_" gradientUnits="userSpaceOnUse" x1="0.3864" y1="792.0218" x2="1.4047" y2="792.0218" gradientTransform="matrix(0 -229.7596 229.7596 0 -181556.375 396.4093)">
		<stop  offset="0" style="stop-color:#F1F6F6"/>
		<stop  offset="0.41" style="stop-color:#FDFDFD"/>
		<stop  offset="0.55" style="stop-color:#F5F8FA"/>
		<stop  offset="0.89" style="stop-color:#D6E1E7"/>
		<stop  offset="0.98" style="stop-color:#C3D3DD"/>
		<stop  offset="1" style="stop-color:#C3D3DD"/>
	</linearGradient>
	<path class="st24" d="M505,97.4c-18.3,16.4-55,42-86,62.1s-51.1,53.9-74.9,89.5c-18.3,27.4-41.1,42.5-50.7,50.3
		c-2.9,2.3-4.5,8.6-4.5,8.6c33,4.8,40.7-0.5,80.8-0.5c54.8,0,116.9-45.6,139.7-70.3c22.8-24.7,37.4-64.8,38.3-105.9
		c0.9-41.1-20.1-57.5-20.1-57.5S523.2,81,505,97.4z"/>
	<g>
		
			<radialGradient id="SVGID_21_" cx="-0.555" cy="793.8839" r="1.0183" gradientTransform="matrix(70.4536 45.5546 22.1321 -34.229 -17346.8691 27451.5273)" gradientUnits="userSpaceOnUse">
			<stop  offset="0" style="stop-color:#153E68"/>
			<stop  offset="1" style="stop-color:#153E68;stop-opacity:0"/>
		</radialGradient>
		<path class="st25" d="M206.9,217.5c39.6,25.6,61.6,62,49.2,81.2c-12.4,19.2-54.7,14.1-94.3-11.5c-39.6-25.6-61.6-62-49.2-81.2
			S167.3,191.9,206.9,217.5L206.9,217.5z"/>
		
			<radialGradient id="SVGID_22_" cx="-0.6222" cy="794.142" r="1.0183" gradientTransform="matrix(66.9318 50.5871 20.6316 -27.2978 -16160.7559 21952.4043)" gradientUnits="userSpaceOnUse">
			<stop  offset="0" style="stop-color:#153E68"/>
			<stop  offset="1" style="stop-color:#153E68;stop-opacity:0"/>
		</radialGradient>
		<path class="st26" d="M203,214.8c37.6,28.4,58.7,64,47.1,79.3c-11.6,15.3-51.6,4.7-89.2-23.7s-58.7-64-47.1-79.3
			C125.5,175.8,165.4,186.4,203,214.8L203,214.8z"/>
	</g>
	<g>
		
			<radialGradient id="SVGID_23_" cx="0.616" cy="794.4632" r="1.0183" gradientTransform="matrix(69.6313 -38.9278 -14.8732 -26.6042 12161.416 21426.8066)" gradientUnits="userSpaceOnUse">
			<stop  offset="0" style="stop-color:#153E68"/>
			<stop  offset="1" style="stop-color:#153E68;stop-opacity:0"/>
		</radialGradient>
		<path class="st27" d="M372.9,239.7c39.1-21.9,77.7-27.5,86.1-12.6c8.4,15-16.6,44.9-55.8,66.7c-39.1,21.9-77.7,27.5-86.1,12.6
			C308.8,291.5,333.8,261.6,372.9,239.7L372.9,239.7z"/>
		
			<radialGradient id="SVGID_24_" cx="0.6271" cy="794.242" r="1.0183" gradientTransform="matrix(68.8796 -38.5075 -16.3696 -29.2808 13359.4814 23531.0859)" gradientUnits="userSpaceOnUse">
			<stop  offset="0" style="stop-color:#153E68"/>
			<stop  offset="1" style="stop-color:#153E68;stop-opacity:0"/>
		</radialGradient>
		<path class="st28" d="M384.6,221.1c38.7-21.6,77.6-25.9,86.8-9.4c9.2,16.5-14.8,47.4-53.5,69c-38.7,21.6-77.6,25.9-86.8,9.4
			C321.9,273.7,345.9,242.8,384.6,221.1z"/>
		
			<radialGradient id="SVGID_25_" cx="0.7114" cy="793.9688" r="1.0183" gradientTransform="matrix(64.9743 -44.783 -20.1884 -29.2909 16382.9697 23553.8496)" gradientUnits="userSpaceOnUse">
			<stop  offset="0" style="stop-color:#153E68"/>
			<stop  offset="1" style="stop-color:#1A426B;stop-opacity:0"/>
		</radialGradient>
		<path class="st29" d="M379.7,236.1c36.5-25.2,75.4-32.2,86.7-15.8s-9.1,50.3-45.6,75.4c-36.5,25.2-75.4,32.2-86.7,15.8
			C322.7,295.1,343.2,261.3,379.7,236.1L379.7,236.1z"/>
		
			<radialGradient id="SVGID_26_" cx="1.4001" cy="793.1262" r="1.0183" gradientTransform="matrix(24.935 -55.8574 -24.4661 -10.9218 19819.1152 8952.0264)" gradientUnits="userSpaceOnUse">
			<stop  offset="0" style="stop-color:#153E68"/>
			<stop  offset="1" style="stop-color:#1B436C;stop-opacity:0"/>
		</radialGradient>
		<path class="st30" d="M424.4,200.3c14-31.4,36.6-51.9,50.3-45.8c13.8,6.1,13.5,36.6-0.5,68c-14,31.4-36.6,51.9-50.3,45.8
			C410.2,262.2,410.4,231.7,424.4,200.3z"/>
	</g>
	
		<linearGradient id="SVGID_27_" gradientUnits="userSpaceOnUse" x1="0.5473" y1="792.0603" x2="1.5656" y2="792.0603" gradientTransform="matrix(22.5893 -160.344 -160.344 -22.5893 127179.6797 18268.0918)">
		<stop  offset="0" style="stop-color:#FDFDFF"/>
		<stop  offset="0.26" style="stop-color:#F1F2F2"/>
		<stop  offset="0.73" style="stop-color:#BFD2E0"/>
		<stop  offset="1" style="stop-color:#AFC0CC"/>
	</linearGradient>
	<path class="st31" d="M119.5,152.7c-3.9,28.7,2.9,58.3,16.4,77.8c13.5,19.5,52.4,57.5,90.7,62.9c24.9,3.5,51.6,3.4,51.6,3.4
		s-14.9-14.5-28-41.7s-23.8-52.8-43.5-69.9c-19.7-17.1-40.2-35.6-51.3-48.8c-11.1-13.3-14.8-21.6-14.8-21.6S124.1,119.1,119.5,152.7
		z"/>
	
		<linearGradient id="SVGID_28_" gradientUnits="userSpaceOnUse" x1="-2.731078e-02" y1="791.4314" x2="0.991" y2="791.4314" gradientTransform="matrix(-159.3127 -1.642718e-03 -1.642718e-03 159.3127 279.0778 -125878.2813)">
		<stop  offset="0" style="stop-color:#FAFAFA"/>
		<stop  offset="0.26" style="stop-color:#F1F6F8"/>
		<stop  offset="0.73" style="stop-color:#DCE5EB"/>
		<stop  offset="1" style="stop-color:#BBCFDA"/>
	</linearGradient>
	<path class="st32" d="M120.8,152.9c-3.4,28.8,2.8,58.3,16.4,77.8c13.5,19.5,52.4,57.5,90.7,62.9c28.1,4,30.7,5.5,54.2,5.4
		c0,0-17.5-16.5-30.6-43.7s-23.8-52.8-43.5-69.9c-19.7-17.1-42.9-38.6-54-51.9s-13.5-18.8-13.5-18.8S124.2,124.1,120.8,152.9
		L120.8,152.9z"/>
	<g>
		
			<radialGradient id="SVGID_29_" cx="-2.9299" cy="792.5931" r="1.0183" gradientTransform="matrix(9.1809 26.5809 50.7668 -17.5345 -39991.7148 14310.75)" gradientUnits="userSpaceOnUse">
			<stop  offset="0" style="stop-color:#153E68"/>
			<stop  offset="1" style="stop-color:#153E68;stop-opacity:0"/>
		</radialGradient>
		<path class="st33" d="M270.5,317.3c5.2,14.9-13.8,35.1-42.3,44.9c-28.5,9.9-55.9,5.7-61-9.2c-5.2-14.9,13.8-35.1,42.3-44.9
			C238,298.2,265.4,302.3,270.5,317.3L270.5,317.3z"/>
		
			<radialGradient id="SVGID_30_" cx="-3.5043" cy="792.1428" r="1.0183" gradientTransform="matrix(1.0365 25.144 46.8937 -1.933 -36932.3086 1948.6332)" gradientUnits="userSpaceOnUse">
			<stop  offset="0" style="stop-color:#153E68"/>
			<stop  offset="1" style="stop-color:#153E68;stop-opacity:0"/>
		</radialGradient>
		<path class="st34" d="M258.3,327.3c0.6,14.1-20.3,26.5-46.7,27.6s-48.2-9.5-48.8-23.6c-0.6-14.1,20.3-26.5,46.7-27.6
			C235.9,302.6,257.7,313.2,258.3,327.3L258.3,327.3z"/>
		
			<radialGradient id="SVGID_31_" cx="-4.2169" cy="792.899" r="1.0183" gradientTransform="matrix(7.3732 17.4443 38.633 -16.3291 -30358.4941 13358.2637)" gradientUnits="userSpaceOnUse">
			<stop  offset="0" style="stop-color:#153E68"/>
			<stop  offset="1" style="stop-color:#153E68;stop-opacity:0"/>
		</radialGradient>
		<path class="st35" d="M281.8,320.7c4.1,9.8-10.1,25.2-31.8,34.4c-21.7,9.2-42.7,8.7-46.8-1.1c-4.1-9.8,10.1-25.2,31.8-34.4
			C256.7,310.4,277.7,310.9,281.8,320.7z"/>
	</g>
	
		<linearGradient id="SVGID_32_" gradientUnits="userSpaceOnUse" x1="0.6816" y1="791.4898" x2="1.6999" y2="791.4898" gradientTransform="matrix(-58.4948 -85.3721 -85.3721 58.4948 67856.125 -45890.7969)">
		<stop  offset="0" style="stop-color:#FDFDFF"/>
		<stop  offset="0.26" style="stop-color:#F1F2F2"/>
		<stop  offset="0.73" style="stop-color:#BFD2E0"/>
		<stop  offset="1" style="stop-color:#AFC0CC"/>
	</linearGradient>
	<path class="st36" d="M153.5,315.5c10.5,15.2,26.5,26.3,41.3,29.6c14.8,3.4,49.5,4.5,69.9-9.5c13.3-9.1,25.8-20.7,25.8-20.7
		s-13.3-0.4-31.2-7.6c-17.9-7.2-34-14.6-50.7-14.2c-16.7,0.4-34.3,0.6-45.3-0.9c-11-1.5-16.3-3.8-16.3-3.8S141.2,297.6,153.5,315.5
		L153.5,315.5z"/>
	
		<linearGradient id="SVGID_33_" gradientUnits="userSpaceOnUse" x1="-0.6205" y1="791.3771" x2="0.3978" y2="791.3771" gradientTransform="matrix(-75.1431 68.7027 68.7027 75.1431 -54162.9102 -59153.0195)">
		<stop  offset="0" style="stop-color:#FAFAFA"/>
		<stop  offset="0.26" style="stop-color:#F1F6F8"/>
		<stop  offset="0.73" style="stop-color:#DCE5EB"/>
		<stop  offset="1" style="stop-color:#BBCFDA"/>
	</linearGradient>
	<path class="st37" d="M154.2,315c10.8,15,26.5,26.3,41.3,29.6c14.8,3.3,49.5,4.5,69.9-9.5c14.9-10.2,16.9-10.7,27.9-20.9
		c0,0-15.4-0.2-33.3-7.4c-17.9-7.2-34-14.7-50.7-14.2c-16.7,0.4-36.9,0.3-47.9-1.2c-11-1.5-14.5-3.1-14.5-3.1S143.3,299.9,154.2,315
		L154.2,315z"/>
	
		<radialGradient id="SVGID_34_" cx="-7.875490e-02" cy="793.0859" r="1.0183" gradientTransform="matrix(-81.0857 0 0 -81.0857 388.9078 64655.6641)" gradientUnits="userSpaceOnUse">
		<stop  offset="0" style="stop-color:#F9F9FA"/>
		<stop  offset="1" style="stop-color:#F5F7F7"/>
	</radialGradient>
	<path class="st38" d="M480.9,310.2c-16.4,6.9-89.5,3-116.2,0c-26.8-3-54.5-2.6-59.6-3c-18.5-1.7-15.1,4.3-16.4,22.9
		c-3,51.4,16.4,61.8,30.7,64c14.3,2.2,27.2-4.8,27.2-4.8s141.3-64,154.3-70.9c2.4-13.3,1.8-17.5-1.1-17.5
		C496.3,301,489.7,306.5,480.9,310.2L480.9,310.2z"/>
	<g>
		
			<radialGradient id="SVGID_35_" cx="-0.8877" cy="795.0141" r="1.0183" gradientTransform="matrix(42.8595 30.4208 14.3765 -20.2549 -11057.1475 16477.6738)" gradientUnits="userSpaceOnUse">
			<stop  offset="0" style="stop-color:#153E68"/>
			<stop  offset="1" style="stop-color:#153E68;stop-opacity:0"/>
		</radialGradient>
		<path class="st39" d="M349,327.1c24.1,17.1,37.1,40.2,29,51.6c-8.1,11.4-34.2,6.7-58.3-10.4c-24.1-17.1-37.1-40.2-29-51.6
			C298.8,305.4,324.9,310,349,327.1z"/>
		
			<radialGradient id="SVGID_36_" cx="-1.1584" cy="795.0115" r="1.0183" gradientTransform="matrix(32.905 23.3553 14.3765 -20.2549 -11063.2666 16477.6738)" gradientUnits="userSpaceOnUse">
			<stop  offset="0" style="stop-color:#153E68"/>
			<stop  offset="1" style="stop-color:#153E68;stop-opacity:0"/>
		</radialGradient>
		<path class="st40" d="M342.7,327.1c18.5,13.1,26.9,33,18.9,44.4c-8.1,11.4-29.7,10-48.1-3.2c-18.5-13.1-26.9-33-18.9-44.4
			C302.7,312.6,324.2,314,342.7,327.1z"/>
		
			<radialGradient id="SVGID_37_" cx="-1.1513" cy="795.0184" r="1.0183" gradientTransform="matrix(32.905 23.3553 14.3765 -20.2549 -11045.2119 16479.0762)" gradientUnits="userSpaceOnUse">
			<stop  offset="0" style="stop-color:#153E68"/>
			<stop  offset="1" style="stop-color:#153E68;stop-opacity:0"/>
		</radialGradient>
		<path class="st41" d="M361.1,328.5c18.5,13.1,26.9,33,18.9,44.4c-8.1,11.4-29.7,10-48.1-3.2c-18.5-13.1-26.9-33-18.9-44.4
			C321.1,314,342.6,315.4,361.1,328.5z"/>
	</g>
	
		<linearGradient id="SVGID_38_" gradientUnits="userSpaceOnUse" x1="0.4815" y1="791.298" x2="1.4998" y2="791.298" gradientTransform="matrix(88.4464 -53.7283 53.7283 88.4464 -42246.7148 -69608.3203)">
		<stop  offset="0" style="stop-color:#FDFDFF"/>
		<stop  offset="0.26" style="stop-color:#F1F2F2"/>
		<stop  offset="0.73" style="stop-color:#BFD2E0"/>
		<stop  offset="1" style="stop-color:#AFC0CC"/>
	</linearGradient>
	<path class="st42" d="M298.7,333.1c12.8,21.1,45,34.4,59.8,37.4c14.8,3,33.9-0.5,49.8-10c18.6-11.2,17-21.9,17-21.9
		s-5.8-0.1-16.4-3.3c-10.6-3.2-26.6-10.6-41.6-17.8c-15-7.3-32.7-7.1-52-7.9c-19.3-0.8-31.5-5.9-31.5-5.9S290.4,319.3,298.7,333.1
		L298.7,333.1z"/>
	
		<linearGradient id="SVGID_39_" gradientUnits="userSpaceOnUse" x1="-0.7852" y1="791.6058" x2="0.2332" y2="791.6058" gradientTransform="matrix(40.2062 93.5432 -93.5432 40.2062 74416.4766 -31475.4336)">
		<stop  offset="0" style="stop-color:#FAFAFA"/>
		<stop  offset="0.26" style="stop-color:#F1F6F8"/>
		<stop  offset="0.73" style="stop-color:#DCE5EB"/>
		<stop  offset="1" style="stop-color:#BBCFDA"/>
	</linearGradient>
	<path class="st43" d="M298.3,332.4c12.8,21.1,45,34.4,59.8,37.4c14.8,3,33.8-0.7,49.8-10c16.1-9.3,17.5-21.2,17.5-21.2
		s-3.8,0-14.4-3.2c-10.6-3.2-29.1-11.4-44.1-18.6c-15-7.3-32.7-7.1-52-7.9c-19.3-0.8-33.4-7-33.4-7
		C287.3,315.7,288.9,316.9,298.3,332.4L298.3,332.4z"/>
	<path class="st44" d="M496.1,320.6c0,0,5.9-4.6,5.5-13.7c-0.5-9.1,1.8-22.8-46.6-52.5c-16,28.8-71.2,105.4-95.4,122.8
		c-24.2,17.3-28.1,16.8-28.1,16.8s14-1.7,26.2-10.8C371,373.2,496.1,320.6,496.1,320.6"/>
	
		<linearGradient id="SVGID_40_" gradientUnits="userSpaceOnUse" x1="-1.046" y1="791.3971" x2="-2.766595e-02" y2="791.3971" gradientTransform="matrix(30.9286 68.5808 -68.5808 30.9286 54700.2109 -24120.3594)">
		<stop  offset="0" style="stop-color:#AEBCD0"/>
		<stop  offset="0.22" style="stop-color:#859BB9"/>
		<stop  offset="0.53" style="stop-color:#A1B1C9"/>
		<stop  offset="1" style="stop-color:#97A9C3"/>
	</linearGradient>
	<path class="st45" d="M361.4,378.1c-15,10.8-19.6,12.9-23,14.3c1.3-0.4,10.7-2.8,21.1-8.4c14.6-7.8,138.3-62.5,138.3-62.5
		c0,0,5.9-4.6,5.5-13.7c-0.5-9.1,1.8-22.8-46.6-52.5C440.8,284.1,385.6,360.8,361.4,378.1L361.4,378.1z"/>
	
		<linearGradient id="SVGID_41_" gradientUnits="userSpaceOnUse" x1="0.86" y1="792.0447" x2="1.8783" y2="792.0447" gradientTransform="matrix(0 -100.7371 100.7371 0 -79510.8047 513.2176)">
		<stop  offset="0" style="stop-color:#C0CBDA"/>
		<stop  offset="2.000000e-02" style="stop-color:#C0CBDA"/>
		<stop  offset="0.11" style="stop-color:#D4DBE5"/>
		<stop  offset="0.45" style="stop-color:#F5F6F9"/>
		<stop  offset="0.59" style="stop-color:#FDFDFD"/>
		<stop  offset="1" style="stop-color:#FCFDFD"/>
	</linearGradient>
	<path class="st46" d="M286.1,324c-3,0-29.3,47.8-17,102.6c0,0,17.6-21.1,19.8-74.2C289.8,330.4,288.2,324,286.1,324L286.1,324z"/>
	<path class="st47" d="M217.5,171.8c6.2-6,27.3-1.2,32.2,5.4c4.8,6.5,29.8,31.4,28.6,69.2c3.8,0.2,8.9,0.8,14.8,0.8
		c5,0,9.7-0.5,13.5-0.7c-1.2-37.8,23.8-62.8,28.6-69.3c5-6.6,26-11.5,32.2-5.4c6.2,6-9.9,5.4-17.3,3.6
		c-24.1,5.3-39.4,58.6-42.7,71.1c5.6-0.3,9.2,0.1,9.2,3.8c0,5.6-7.9,14.7-18.9,15.7c0.4,2.3,3.1,14.9,0.1,28.1
		c-1.2,5.4-12.3,11.5-12.3,11.5c-11.8-38.5-0.1-42.3,0-42.6c-9.6-1.4-14.9-7.5-14.9-12.7c0-3.3,2.5-4,6.8-3.9
		c-3.3-12.6-18.7-65.7-42.7-71C227.4,177.2,211.3,177.8,217.5,171.8"/>
	
		<radialGradient id="SVGID_42_" cx="-5.209909e-02" cy="793.5067" r="1.0183" gradientTransform="matrix(-87.1067 0 0 -59.7422 287.9465 47644.9297)" gradientUnits="userSpaceOnUse">
		<stop  offset="0" style="stop-color:#3F51B5"/>
		<stop  offset="1" style="stop-color:#04BBF3"/>
	</radialGradient>
	<path class="st48" d="M335.2,179c-4.8,6.5-29.8,31.5-28.6,69.3c-3.8,0.2-8.5,0.7-13.5,0.7c-5.8,0-10.9-0.7-14.8-0.8
		c1.2-37.8-23.8-62.7-28.6-69.2c-5-6.6-26-11.5-32.2-5.4c-6.2,6,9.9,5.4,17.3,3.6c24,5.3,39.4,58.4,42.7,71
		c-4.2-0.1-6.8,0.6-6.8,3.9c0,5.2,3.8,11.6,13.5,13.1c-0.2,0.3-8.1,6,1.4,42.2c0,0,15.1-1.4,12.8-32.3c-0.3-3.6-0.6-6.4-1.1-8.7
		c11-1,19.3-8.7,19.3-14.3c0-3.7-3.6-4.1-9.2-3.8c3.3-12.4,18.6-65.7,42.7-71.1c7.4,1.8,23.5,2.4,17.3-3.6c-2-1.9-5.5-2.8-9.5-2.8
		C349.4,170.8,338.6,174.5,335.2,179L335.2,179z"/>
	
		<linearGradient id="SVGID_43_" gradientUnits="userSpaceOnUse" x1="0.4084" y1="792.0209" x2="1.4267" y2="792.0209" gradientTransform="matrix(0 -216.4171 216.4171 0 -171114.6875 417.6653)">
		<stop  offset="0" style="stop-color:#AFC0CC"/>
		<stop  offset="0.24" style="stop-color:#AFC0CC"/>
		<stop  offset="0.74" style="stop-color:#F1F2F2"/>
		<stop  offset="1" style="stop-color:#FDFDFF"/>
	</linearGradient>
	<path class="st49" d="M233,113.4c-4.6,9.2,11.5,10.6,17,7.8c17.7,8.1,29,89,31.5,108.2c-3.1-0.2-5,0.9-5,5.9
		c0,7.9,4.3,19.1,11.3,21.3c-0.1,0.5-0.2,0.8-0.2,0.8s-12.1,22.5-2,71.8c0,0,11.2-24.6,11.2-58.9c0-5.4-0.5-9.8-0.8-13.2
		c8.1-1.5,14.2-13.2,14.2-21.8c0-5.7-2.7-6.3-6.8-5.8c1.9-22.6,9.6-99.3,31.5-108.3c5.5,2.8,20.9,1.7,16.3-7.5
		c-4.6-9.2-20.7-1.9-27.1,6.8c-7,9.5-24,51.8-23.1,109.4c-2.8,0.4-4.4,0.8-8.1,0.8c-4.3,0-8-1-10.9-1.3
		c0.9-57.6-17.9-95.5-21.1-105.5c-3-9.5-12.3-15.1-19.6-15.1C237.7,108.9,234.6,110.3,233,113.4L233,113.4z"/>
	
		<linearGradient id="SVGID_44_" gradientUnits="userSpaceOnUse" x1="0.3967" y1="792.0204" x2="1.415" y2="792.0204" gradientTransform="matrix(0 -222.451 222.451 0 -175893.5781 425.4917)">
		<stop  offset="0" style="stop-color:#FAFAFA"/>
		<stop  offset="0.26" style="stop-color:#F1F6F8"/>
		<stop  offset="0.73" style="stop-color:#DCE5EB"/>
		<stop  offset="1" style="stop-color:#BBCFDA"/>
	</linearGradient>
	<path class="st50" d="M233,115.2c-4.6,9.1,11.5,10.5,17,7.7c17.7,8,29,88.3,31.5,107.3c-3.1-0.2-5,0.9-5,5.9
		c0,7.8,4.3,19,11.3,21.1c-0.1,0.5-0.2,0.8-0.2,0.8s-20.9,72.2-7.2,119.5c0,0,18.1-60,16.4-106.7c-0.2-5.4-0.5-9.7-0.8-13.1
		c8.1-1.5,14.2-13.1,14.2-21.6c0-5.6-2.7-6.2-6.8-5.8c1.9-22.4,9.6-98.5,31.5-107.5c5.5,2.7,20.9,1.7,16.3-7.4
		c-4.6-9.1-20.7-1.9-27.1,6.7c-7,9.4-24,51.3-23.1,108.5c-2.8,0.4-4.4,0.8-8.1,0.8c-4.3,0-8-1-10.9-1.3
		c0.9-57.1-17.9-94.7-21.1-104.6c-3-9.4-12.3-15-19.6-15C237.7,110.7,234.6,112.1,233,115.2L233,115.2z"/>
	<path class="st21" d="M312.3,280c0,0,18.2-14.4,33.1-30.1c14.8-15.7,62.7-61,74.6-73.3c11.9-12.3,44.1-54.3,48.3-72.1
		c9.8,21.6,16.1,61,4.2,99.2c-11.9,38.2-39.4,65.7-75.9,81c-36.5,15.3-68.3,14.4-77.1,14.4C310.6,299.1,298.3,293.2,312.3,280"/>
	
		<linearGradient id="SVGID_45_" gradientUnits="userSpaceOnUse" x1="0.4653" y1="791.9677" x2="1.4837" y2="791.9677" gradientTransform="matrix(0 -191.0999 -191.0999 0 151731.5313 388.077)">
		<stop  offset="0" style="stop-color:#F1F6F6"/>
		<stop  offset="0.41" style="stop-color:#FDFDFD"/>
		<stop  offset="0.55" style="stop-color:#F5F8FA"/>
		<stop  offset="0.89" style="stop-color:#D6E1E7"/>
		<stop  offset="0.98" style="stop-color:#C3D3DD"/>
		<stop  offset="1" style="stop-color:#C3D3DD"/>
	</linearGradient>
	<path class="st51" d="M418.3,176.6c-11.9,12.3-59.8,57.6-74.6,73.3c-17.6,18.6-17.3,19.9-33.4,32.7c-6.1,5.7-15.6,12.2-14.3,15
		c1.3,2.7,16.9,1.5,21.9,1.5c8.9,0,40.7,0.8,77.2-14.4c36.5-15.3,64-42.8,75.9-81c11.9-38.2,5.5-77.6-4.2-99.2
		C462.4,122.4,430.2,164.3,418.3,176.6z"/>
</g>
</svg>
