<?xml version="1.0" encoding="utf-8"?>
<!-- Generator: Adobe Illustrator 24.1.3, SVG Export Plug-In . SVG Version: 6.00 Build 0)  -->
<svg version="1.1" id="Layer_1" xmlns="http://www.w3.org/2000/svg" xmlns:xlink="http://www.w3.org/1999/xlink" x="0px" y="0px"
	 viewBox="0 0 1107.6 1113" style="enable-background:new 0 0 1107.6 1113;" xml:space="preserve">
<style type="text/css">
	.st0{fill:#00396F;}
	.st1{fill:#FFFFFF;}
</style>
<g>
	<path class="st0" d="M789.9,478.3c-174.4,0-315.8,141.4-315.8,315.8s141.4,315.8,315.8,315.8c174.4,0,315.8-141.4,315.8-315.8
		S964.3,478.3,789.9,478.3L789.9,478.3z"/>
	<polygon class="st1" points="946.1,849.1 883.2,951.2 609.9,951.2 761.5,716.3 621.4,716.3 679.8,622.8 946.1,622.8 803.9,849 
		946.1,849 	"/>
	<path class="st0" d="M782.7,103.9V0C350.3,1.9,0.3,353,0.3,785.8c0,2,0.1,3.9,0.2,5.9h103.6C105.3,415.4,407.6,110.2,782.7,103.9z"
		/>
	<path class="st0" d="M782.7,320.6V216.8c-0.8,0-1.6-0.1-2.4-0.1c-316.3,0-572.6,256.4-572.6,572.6c0,0.8,0.1,1.6,0.1,2.3h103.8
		C316,533.4,524.4,325,782.7,320.6z"/>
</g>
</svg>
